<?xml version="1.0" standalone="no"?>
<!DOCTYPE svg PUBLIC "-//W3C//DTD SVG 20010904//EN"
 "http://www.w3.org/TR/2001/REC-SVG-20010904/DTD/svg10.dtd">
<svg version="1.0" xmlns="http://www.w3.org/2000/svg"
 width="1060.000000pt" height="207.000000pt" viewBox="0 0 1060.000000 207.000000"
 preserveAspectRatio="xMidYMid meet">

<g transform="translate(0.000000,207.000000) scale(0.100000,-0.100000)"
fill="#000000" stroke="none">
<path d="M1 1035 l0 -1035 4350 0 c3477 0 4349 3 4343 12 -6 11 -4 11 7 0 22
-20 41 -15 35 11 l-6 22 11 -22 12 -23 832 0 831 0 11 28 12 27 -6 -27 c-4
-21 -1 -28 11 -28 18 0 42 43 55 97 7 28 9 31 10 13 0 -14 -8 -44 -19 -67
l-19 -43 64 0 65 0 0 799 c0 753 -1 800 -17 804 -17 4 -17 5 0 6 10 1 17 9 17
21 0 19 -7 20 -134 20 -132 0 -135 0 -139 -22 -4 -20 -4 -19 -6 5 l-1 27 140
0 140 0 0 205 0 205 -5021 0 -5020 0 20 -26 c12 -15 21 -33 21 -40 0 -8 7 -14
15 -14 10 0 15 10 15 27 l0 27 22 -22 c33 -32 30 -88 -6 -118 -17 -16 -22 -24
-12 -24 16 0 52 41 61 71 10 31 20 23 44 -35 12 -30 29 -57 37 -60 22 -8 54
30 54 64 0 36 10 38 47 6 25 -22 28 -31 27 -80 -2 -56 4 -67 24 -43 21 25 24
66 8 98 -9 18 -15 34 -13 35 9 9 74 -19 99 -42 61 -59 58 -136 -8 -194 l-35
-30 -152 -2 c-84 -1 -161 0 -172 1 -26 4 -194 4 -220 0 -11 -1 -88 -2 -172 -1
l-152 2 -35 30 c-66 58 -69 135 -8 194 25 23 90 51 99 42 2 -1 -4 -17 -13 -34
-17 -35 -12 -83 11 -102 23 -19 35 -3 23 31 -12 35 3 82 36 104 30 21 49 19
41 -5 -6 -20 9 -59 28 -72 20 -13 46 13 64 62 10 28 21 50 25 50 3 0 17 -19
30 -42 13 -24 32 -44 43 -47 17 -3 16 0 -7 24 -36 35 -38 85 -5 118 l22 22 3
-27 c5 -39 17 -35 40 12 l19 40 -263 0 -263 0 0 -1035z m2589 621 c0 -6 -5 -3
-11 7 -6 9 -15 14 -21 11 -7 -4 -8 -2 -4 5 9 14 36 -3 36 -23z m4603 19 c-3
-9 -8 -14 -10 -11 -3 3 -2 9 2 15 9 16 15 13 8 -4z m2096 -24 c0 -10 -3 -8
-10 7 -5 14 -13 20 -20 16 -8 -4 -9 -3 -5 5 10 16 36 -5 35 -28z m-2072 7 c-3
-8 -6 -5 -6 6 -1 11 2 17 5 13 3 -3 4 -12 1 -19z m-6884 -33 c-155 -78 -259
-222 -317 -440 -3 -11 -3 -1 -1 21 12 103 110 275 200 351 50 42 152 103 174
103 7 0 -18 -16 -56 -35z m441 3 c73 -39 178 -142 224 -220 44 -75 82 -188 87
-263 l4 -60 -10 62 c-13 85 -51 194 -91 260 -50 85 -146 176 -229 217 -39 20
-66 36 -59 36 7 0 40 -15 74 -32z m679 25 l-262 -3 -4 -23 c-4 -19 -4 -18 -6
6 l-1 27 268 -2 267 -3 -262 -2z m1076 -72 c-13 -39 -25 -69 -27 -67 -2 3 7
36 19 75 13 39 25 69 27 67 2 -3 -7 -36 -19 -75z m906 47 c14 -29 14 -31 0
-14 -8 11 -15 23 -15 28 0 4 -72 8 -159 8 -158 0 -160 0 -164 -22 -4 -20 -4
-19 -6 5 l-1 27 165 0 164 0 16 -32z m573 5 c-2 -19 -9 -28 -23 -30 -16 -1
-16 -1 -2 3 9 3 17 14 17 25 0 18 -9 19 -146 19 -141 0 -146 -1 -141 -20 3
-11 1 -20 -4 -20 -10 0 -12 33 -2 43 3 4 73 7 155 7 l149 0 -3 -27z m325 20
c-220 -3 -222 -4 -226 -26 -4 -19 -4 -18 -6 6 l-1 27 228 -2 227 -3 -222 -2z
m575 0 c-176 -3 -178 -4 -179 -26 0 -12 -3 -16 -6 -9 -3 7 -2 19 1 27 4 13 35
15 183 13 l178 -3 -177 -2z m900 0 c-53 -2 -143 -2 -200 0 -57 1 -13 3 97 3
110 0 156 -2 103 -3z m601 -20 c-2 -24 -2 -25 -6 -6 -4 22 -6 23 -221 26
l-217 2 223 3 222 2 -1 -27z m407 -1 c1 -18 1 -19 -3 -2 -4 19 -12 20 -118 20
-110 0 -114 -1 -118 -22 -4 -20 -4 -19 -6 5 l-1 28 123 -3 c119 -3 122 -4 123
-26z m1153 1 c-2 -24 -2 -25 -6 -5 -4 22 -5 22 -193 22 -188 0 -189 0 -193
-22 -4 -20 -4 -19 -6 5 l-1 27 200 0 200 0 -1 -27z m289 20 c-215 -3 -217 -4
-221 -26 -4 -19 -4 -18 -6 6 l-1 27 223 -2 222 -3 -217 -2z m620 -20 c-2 -14
-9 -28 -16 -29 -7 -1 -8 0 -2 3 5 2 10 13 10 24 0 17 -10 19 -117 22 l-118 3
123 2 123 2 -3 -27z m1221 0 c-2 -24 -2 -25 -6 -5 -4 22 -5 22 -214 22 l-209
0 -1 -22 c0 -13 -3 -17 -6 -10 -3 7 -2 19 1 27 4 13 41 15 221 15 l215 0 -1
-27z m-9417 -4 c131 -44 239 -143 308 -282 55 -111 73 -204 67 -337 -13 -295
-198 -530 -448 -572 -226 -37 -462 130 -545 386 -35 106 -43 258 -20 366 32
153 136 312 252 386 116 75 263 95 386 53z m1071 14 c-7 -2 -19 -2 -25 0 -7 3
-2 5 12 5 14 0 19 -2 13 -5z m63 -19 c19 -15 19 -15 -1 -6 -11 5 -27 12 -35
15 -13 5 -13 6 1 6 8 1 24 -6 35 -15z m812 -94 c0 -8 -8 8 -18 35 -10 28 -18
57 -18 65 0 8 8 -7 18 -35 10 -27 18 -57 18 -65z m2447 80 c-3 -5 -15 -10 -27
-10 -12 0 -54 -32 -102 -77 l-81 -77 75 77 c43 44 88 81 105 86 17 5 31 10 33
10 2 1 0 -3 -3 -9z m460 -8 c-3 -3 -11 0 -18 7 -9 10 -8 11 6 5 10 -3 15 -9
12 -12z m360 8 c-3 -5 -14 -10 -24 -10 -32 0 -44 -26 -38 -83 l5 -52 -10 42
c-15 60 -5 91 35 102 17 5 33 10 35 10 2 1 0 -3 -3 -9z m-4619 -16 c10 -8 13
-12 5 -8 -8 4 -28 11 -45 15 -29 6 -29 7 -5 8 14 1 34 -6 45 -15z m600 -16
l29 -33 -32 29 c-18 17 -33 31 -33 33 0 8 8 1 36 -29z m1278 23 c3 -4 -6 -6
-19 -3 -14 2 -25 6 -25 8 0 8 39 4 44 -5z m640 -12 c14 -11 26 -26 26 -32 0
-6 -7 -2 -15 11 -9 12 -30 26 -48 31 -23 6 -26 9 -11 10 12 1 33 -8 48 -20z
m383 15 c-3 -3 -12 -4 -19 -1 -8 3 -5 6 6 6 11 1 17 -2 13 -5z m338 -1 c-11
-3 -29 -12 -40 -22 -20 -16 -20 -16 -1 7 11 12 29 21 40 21 20 -1 20 -2 1 -6z
m296 -10 c12 -16 12 -16 -1 -6 -8 6 -28 13 -45 16 l-30 4 31 2 c20 0 37 -6 45
-16z m1206 11 c-3 -3 -12 -4 -19 -1 -8 3 -5 6 6 6 11 1 17 -2 13 -5z m356 -1
c-7 -2 -19 -2 -25 0 -7 3 -2 5 12 5 14 0 19 -2 13 -5z m269 -10 c10 -9 18 -23
18 -32 0 -10 -5 -7 -13 9 -7 13 -23 27 -37 31 -19 5 -20 7 -6 8 11 1 28 -6 38
-16z m157 14 c-2 -1 -15 -11 -29 -22 l-25 -20 19 23 c11 12 24 22 29 22 6 0 8
-1 6 -3z m816 -7 c3 -6 -1 -7 -9 -4 -18 7 -21 14 -7 14 6 0 13 -4 16 -10z
m332 4 c-3 -3 -12 -4 -19 -1 -8 3 -5 6 6 6 11 1 17 -2 13 -5z m159 -10 c19
-15 19 -15 -1 -6 -11 5 -27 12 -35 15 -13 5 -13 6 1 6 8 1 24 -6 35 -15z m324
9 c-14 -2 -31 -12 -37 -21 -7 -9 -13 -11 -13 -6 0 18 24 34 50 33 l25 -2 -25
-4z m257 1 c-3 -3 -12 -4 -19 -1 -8 3 -5 6 6 6 11 1 17 -2 13 -5z m1020 0 c-3
-3 -12 -4 -19 -1 -8 3 -5 6 6 6 11 1 17 -2 13 -5z m336 -4 c-17 -7 -23 -18
-24 -42 -2 -31 -2 -32 -6 -5 -5 32 11 57 36 56 11 0 9 -3 -6 -9z m354 -7 c10
-10 13 -14 7 -10 -7 5 -25 12 -41 17 -23 7 -24 8 -7 9 12 1 30 -7 41 -16z
m-6450 -4 c-11 -6 -25 -25 -33 -43 -7 -17 -13 -24 -14 -15 0 20 37 69 53 69 7
0 4 -5 -6 -11z m272 -23 c-3 -3 -11 5 -18 17 -13 21 -12 21 5 5 10 -10 16 -20
13 -22z m1832 17 c13 -16 12 -17 -3 -4 -10 7 -18 15 -18 17 0 8 8 3 21 -13z
m1852 -3 c-3 -12 -8 -19 -11 -16 -5 6 5 36 12 36 2 0 2 -9 -1 -20z m826 -59
l-2 -46 -6 50 c-4 28 -10 57 -14 65 -5 8 -1 6 7 -4 10 -13 15 -37 15 -65z m87
25 c-11 -30 -22 -50 -24 -46 -4 10 34 100 41 100 2 0 -5 -24 -17 -54z m925 37
c13 -16 12 -17 -3 -4 -10 7 -18 15 -18 17 0 8 8 3 21 -13z m819 14 c0 -2 -10
-12 -22 -23 l-23 -19 19 23 c18 21 26 27 26 19z m-7085 -37 c9 -16 13 -30 11
-30 -3 0 -12 14 -21 30 -9 17 -13 30 -11 30 3 0 12 -13 21 -30z m-1907 13
c-10 -2 -26 -2 -35 0 -10 3 -2 5 17 5 19 0 27 -2 18 -5z m4749 -45 c-2 -13 -4
-5 -4 17 -1 22 1 32 4 23 2 -10 2 -28 0 -40z m961 -58 c0 -8 -8 8 -18 35 -10
28 -18 57 -18 65 0 8 8 -7 18 -35 10 -27 18 -57 18 -65z m373 84 c5 -15 8 -29
5 -31 -2 -2 -8 10 -14 26 -13 38 -5 41 9 5z m-6034 10 c-3 -3 -12 -4 -19 -1
-8 3 -5 6 6 6 11 1 17 -2 13 -5z m3210 -26 c-3 -7 -5 -2 -5 12 0 14 2 19 5 13
2 -7 2 -19 0 -25z m767 -18 c5 -17 4 -20 -2 -10 -5 8 -13 26 -16 40 -5 17 -4
20 2 10 5 -8 13 -26 16 -40z m2544 25 c-3 -3 -9 2 -12 12 -6 14 -5 15 5 6 7
-7 10 -15 7 -18z m1061 -54 c-13 -39 -25 -69 -27 -67 -2 3 7 36 19 75 13 39
25 69 27 67 2 -3 -7 -36 -19 -75z m-7672 -263 c-1 -62 -3 -12 -3 112 0 124 2
174 3 113 2 -62 2 -164 0 -225z m2930 295 c-3 -10 -5 -4 -5 12 0 17 2 24 5 18
2 -7 2 -21 0 -30z m2279 -9 c-8 -21 -15 -34 -15 -28 -1 15 20 76 25 71 2 -2
-2 -21 -10 -43z m-5034 -19 c11 -21 8 -18 -32 30 -24 29 -24 29 -2 10 13 -11
28 -29 34 -40z m2525 -708 c-1 -139 -2 -22 -2 258 0 281 1 394 2 252 2 -142 2
-372 0 -510z m3670 726 c-3 -10 -5 -4 -5 12 0 17 2 24 5 18 2 -7 2 -21 0 -30z
m2601 -8 c-12 -24 -23 -43 -26 -41 -4 5 36 86 43 86 3 0 -5 -20 -17 -45z
m-9191 -718 c-1 -138 -2 -25 -2 253 0 278 1 391 2 252 2 -138 2 -366 0 -505z
m618 722 c9 -17 15 -33 13 -35 -3 -2 -12 12 -21 31 -21 43 -13 47 8 4z m1303
-468 l-3 -466 -5 470 c-3 259 -9 477 -13 485 -5 8 -1 6 7 -4 14 -18 16 -74 14
-485z m599 477 c-3 -8 -6 -5 -6 6 -1 11 2 17 5 13 3 -3 4 -12 1 -19z m5521
-58 c0 -8 -6 1 -13 20 -7 19 -13 42 -13 50 0 8 6 -1 13 -20 7 -19 13 -42 13
-50z m-2224 6 c-10 -31 -19 -54 -22 -52 -2 2 4 29 14 60 10 31 19 54 22 52 2
-2 -4 -29 -14 -60z m1263 42 c-3 -8 -6 -5 -6 6 -1 11 2 17 5 13 3 -3 4 -12 1
-19z m2030 0 c-3 -8 -6 -5 -6 6 -1 11 2 17 5 13 3 -3 4 -12 1 -19z m-6902 -18
c9 -16 13 -30 11 -30 -3 0 -12 14 -21 30 -9 17 -13 30 -11 30 3 0 12 -13 21
-30z m1291 -5 c-20 -31 -245 -285 -252 -285 -3 0 50 62 117 138 67 75 126 147
132 160 6 12 12 20 15 17 3 -2 -3 -16 -12 -30z m1851 -12 c-3 -10 -5 -2 -5 17
0 19 2 27 5 18 2 -10 2 -26 0 -35z m3142 -8 c0 -5 -6 1 -14 15 -8 14 -14 30
-14 35 0 6 6 -1 14 -15 8 -14 14 -29 14 -35z m-5902 -793 c-1 -152 -2 -25 -2
283 0 308 1 433 2 277 2 -156 2 -408 0 -560z m2430 806 c-3 -8 -6 -5 -6 6 -1
11 2 17 5 13 3 -3 4 -12 1 -19z m-2487 -274 c0 -157 -3 -283 -7 -281 -8 5 -6
567 2 567 3 0 5 -129 5 -286z m1779 236 c0 -9 -4 -8 -9 5 -5 11 -9 27 -9 35 0
9 4 8 9 -5 5 -11 9 -27 9 -35z m2288 28 c-3 -8 -6 -5 -6 6 -1 11 2 17 5 13 3
-3 4 -12 1 -19z m490 0 c-3 -8 -6 -5 -6 6 -1 11 2 17 5 13 3 -3 4 -12 1 -19z
m-708 -38 c0 -9 -4 -8 -9 5 -5 11 -9 27 -9 35 0 9 4 8 9 -5 5 -11 9 -27 9 -35z
m1095 16 c-3 -15 -8 -25 -11 -23 -2 3 -1 17 3 31 3 15 8 25 11 23 2 -3 1 -17
-3 -31z m-2070 -10 c-3 -15 -8 -25 -11 -23 -2 3 -1 17 3 31 3 15 8 25 11 23 2
-3 1 -17 -3 -31z m2003 12 c-3 -8 -6 -5 -6 6 -1 11 2 17 5 13 3 -3 4 -12 1
-19z m-2870 -10 c-3 -8 -6 -5 -6 6 -1 11 2 17 5 13 3 -3 4 -12 1 -19z m490 0
c-3 -8 -6 -5 -6 6 -1 11 2 17 5 13 3 -3 4 -12 1 -19z m3723 -13 c0 -5 -5 -3
-10 5 -5 8 -10 20 -10 25 0 6 5 3 10 -5 5 -8 10 -19 10 -25z m331 8 c-12 -20
-14 -14 -5 12 4 9 9 14 11 11 3 -2 0 -13 -6 -23z m-7722 -33 c0 -9 -4 -8 -9 5
-5 11 -9 27 -9 35 0 9 4 8 9 -5 5 -11 9 -27 9 -35z m886 20 c9 -16 13 -30 11
-30 -3 0 -12 14 -21 30 -9 17 -13 30 -11 30 3 0 12 -13 21 -30z m2564 -20 c0
-9 -4 -8 -9 5 -5 11 -9 27 -9 35 0 9 4 8 9 -5 5 -11 9 -27 9 -35z m525 16 c-3
-15 -8 -25 -11 -23 -2 3 -1 17 3 31 3 15 8 25 11 23 2 -3 1 -17 -3 -31z m1285
-16 c0 -9 -4 -8 -9 5 -5 11 -9 27 -9 35 0 9 4 8 9 -5 5 -11 9 -27 9 -35z m478
28 c-3 -8 -6 -5 -6 6 -1 11 2 17 5 13 3 -3 4 -12 1 -19z m1413 -13 c0 -5 -5
-3 -10 5 -5 8 -10 20 -10 25 0 6 5 3 10 -5 5 -8 10 -19 10 -25z m636 -2 c-8
-15 -15 -25 -16 -21 0 12 23 58 27 54 3 -2 -2 -17 -11 -33z m-8729 -5 c-3 -7
-5 -2 -5 12 0 14 2 19 5 13 2 -7 2 -19 0 -25z m3030 -95 c-114 -127 -115 -128
-101 -155 8 -16 12 -28 10 -28 -3 0 -12 12 -20 28 -14 27 -13 28 101 155 63
70 117 127 119 127 3 0 -46 -57 -109 -127z m3420 105 c-3 -8 -6 -5 -6 6 -1 11
2 17 5 13 3 -3 4 -12 1 -19z m-6220 -25 c-3 -10 -5 -4 -5 12 0 17 2 24 5 18 2
-7 2 -21 0 -30z m6750 15 c-3 -8 -6 -5 -6 6 -1 11 2 17 5 13 3 -3 4 -12 1 -19z
m-6253 -62 c-10 -31 -19 -54 -22 -52 -2 2 4 29 14 60 10 31 19 54 22 52 2 -2
-4 -29 -14 -60z m5975 14 c0 -9 -4 -8 -9 5 -5 11 -9 27 -9 35 0 9 4 8 9 -5 5
-11 9 -27 9 -35z m335 16 c-3 -15 -8 -25 -11 -23 -2 3 -1 17 3 31 3 15 8 25
11 23 2 -3 1 -17 -3 -31z m1316 -1 c0 -5 -5 -3 -10 5 -5 8 -10 20 -10 25 0 6
5 3 10 -5 5 -8 10 -19 10 -25z m291 8 c-12 -20 -14 -14 -5 12 4 9 9 14 11 11
3 -2 0 -13 -6 -23z m-7066 -15 c14 -29 14 -31 1 -14 -14 18 -16 -19 -19 -380
l-2 -399 -3 413 c-1 226 0 412 3 412 2 0 12 -15 20 -32z m3392 10 c-3 -8 -6
-5 -6 6 -1 11 2 17 5 13 3 -3 4 -12 1 -19z m3143 -13 c0 -5 -5 -3 -10 5 -5 8
-10 20 -10 25 0 6 5 3 10 -5 5 -8 10 -19 10 -25z m-4191 -25 c0 -9 -4 -8 -9 5
-5 11 -9 27 -9 35 0 9 4 8 9 -5 5 -11 9 -27 9 -35z m230 0 c0 -9 -4 -8 -9 5
-5 11 -9 27 -9 35 0 9 4 8 9 -5 5 -11 9 -27 9 -35z m478 28 c-3 -8 -6 -5 -6 6
-1 11 2 17 5 13 3 -3 4 -12 1 -19z m981 -88 c0 -8 -8 8 -18 35 -10 28 -18 57
-18 65 0 8 8 -7 18 -35 10 -27 18 -57 18 -65z m1359 88 c-3 -8 -6 -5 -6 6 -1
11 2 17 5 13 3 -3 4 -12 1 -19z m-5102 -18 c9 -16 13 -30 11 -30 -3 0 -12 14
-21 30 -9 17 -13 30 -11 30 3 0 12 -13 21 -30z m2532 8 c-3 -8 -6 -5 -6 6 -1
11 2 17 5 13 3 -3 4 -12 1 -19z m500 0 c-3 -8 -6 -5 -6 6 -1 11 2 17 5 13 3
-3 4 -12 1 -19z m1080 0 c-3 -8 -6 -5 -6 6 -1 11 2 17 5 13 3 -3 4 -12 1 -19z
m230 0 c-3 -8 -6 -5 -6 6 -1 11 2 17 5 13 3 -3 4 -12 1 -19z m2489 -15 c-8
-15 -15 -25 -16 -21 0 12 23 58 27 54 3 -2 -2 -17 -11 -33z m-8689 -10 c-3
-10 -5 -4 -5 12 0 17 2 24 5 18 2 -7 2 -21 0 -30z m6460 15 c-3 -8 -6 -5 -6 6
-1 11 2 17 5 13 3 -3 4 -12 1 -19z m-1513 -22 c-3 -15 -8 -25 -11 -23 -2 3 -1
17 3 31 3 15 8 25 11 23 2 -3 1 -17 -3 -31z m3440 -66 c3 -14 -2 -7 -13 15
-10 22 -21 51 -25 65 -3 14 2 7 13 -15 10 -22 21 -51 25 -65z m222 63 c-8 -15
-15 -25 -16 -21 0 12 23 58 27 54 3 -2 -2 -17 -11 -33z m-3979 5 c-3 -8 -6 -5
-6 6 -1 11 2 17 5 13 3 -3 4 -12 1 -19z m2317 -12 c-3 -15 -8 -25 -11 -23 -2
3 -1 17 3 31 3 15 8 25 11 23 2 -3 1 -17 -3 -31z m724 -46 c0 -8 -6 1 -13 20
-7 19 -13 42 -13 50 0 8 6 -1 13 -20 7 -19 13 -42 13 -50z m452 45 c0 -5 -5
-3 -10 5 -5 8 -10 20 -10 25 0 6 5 3 10 -5 5 -8 10 -19 10 -25z m-3716 -67
c-8 -27 -9 -23 -9 32 0 55 1 59 9 32 5 -19 5 -45 0 -64z m470 58 c-3 -15 -8
-25 -11 -23 -2 3 -1 17 3 31 3 15 8 25 11 23 2 -3 1 -17 -3 -31z m1115 -16 c0
-9 -4 -8 -9 5 -5 11 -9 27 -9 35 0 9 4 8 9 -5 5 -11 9 -27 9 -35z m708 28 c-3
-8 -6 -5 -6 6 -1 11 2 17 5 13 3 -3 4 -12 1 -19z m310 0 c-3 -8 -6 -5 -6 6 -1
11 2 17 5 13 3 -3 4 -12 1 -19z m-5402 -18 c9 -16 13 -30 11 -30 -3 0 -12 14
-21 30 -9 17 -13 30 -11 30 3 0 12 -13 21 -30z m4874 -20 c0 -9 -4 -8 -9 5 -5
11 -9 27 -9 35 0 9 4 8 9 -5 5 -11 9 -27 9 -35z m-2562 18 c-3 -8 -6 -5 -6 6
-1 11 2 17 5 13 3 -3 4 -12 1 -19z m242 -28 c0 -9 -4 -8 -9 5 -5 11 -9 27 -9
35 0 9 4 8 9 -5 5 -11 9 -27 9 -35z m-3942 8 c-3 -7 -5 -2 -5 12 0 14 2 19 5
13 2 -7 2 -19 0 -25z m1678 2 c9 -16 13 -30 11 -30 -3 0 -12 14 -21 30 -9 17
-13 30 -11 30 3 0 12 -13 21 -30z m4334 -20 c0 -9 -4 -8 -9 5 -5 11 -9 27 -9
35 0 9 4 8 9 -5 5 -11 9 -27 9 -35z m2427 13 c-8 -15 -15 -25 -16 -21 0 12 23
58 27 54 3 -2 -2 -17 -11 -33z m-1937 -23 c0 -9 -4 -8 -9 5 -5 11 -9 27 -9 35
0 9 4 8 9 -5 5 -11 9 -27 9 -35z m278 28 c-3 -8 -6 -5 -6 6 -1 11 2 17 5 13 3
-3 4 -12 1 -19z m1159 -65 c-4 -4 -36 73 -35 85 0 4 9 -13 20 -37 11 -24 18
-46 15 -48z m-8169 45 c-3 -7 -5 -2 -5 12 0 14 2 19 5 13 2 -7 2 -19 0 -25z
m4940 10 c-3 -8 -6 -5 -6 6 -1 11 2 17 5 13 3 -3 4 -12 1 -19z m2442 -57 c-13
-39 -25 -69 -27 -67 -2 3 7 36 19 75 13 39 25 69 27 67 2 -3 -7 -36 -19 -75z
m1207 42 c-8 -15 -15 -25 -16 -21 0 12 23 58 27 54 3 -2 -2 -17 -11 -33z
m-7895 -4 c-5 -13 -10 -19 -10 -12 -1 15 10 45 15 40 3 -2 0 -15 -5 -28z
m3966 9 c-3 -8 -6 -5 -6 6 -1 11 2 17 5 13 3 -3 4 -12 1 -19z m652 -57 c-13
-39 -25 -69 -27 -67 -2 3 7 36 19 75 13 39 25 69 27 67 2 -3 -7 -36 -19 -75z
m1628 57 c-3 -8 -6 -5 -6 6 -1 11 2 17 5 13 3 -3 4 -12 1 -19z m-2070 -10 c-3
-8 -6 -5 -6 6 -1 11 2 17 5 13 3 -3 4 -12 1 -19z m-3868 -38 c0 -9 -4 -8 -9 5
-5 11 -9 27 -9 35 0 9 4 8 9 -5 5 -11 9 -27 9 -35z m656 20 c9 -16 13 -30 11
-30 -3 0 -12 14 -21 30 -9 17 -13 30 -11 30 3 0 12 -13 21 -30z m4822 8 c-3
-8 -6 -5 -6 6 -1 11 2 17 5 13 3 -3 4 -12 1 -19z m-2518 -38 c0 -9 -4 -8 -9 5
-5 11 -9 27 -9 35 0 9 4 8 9 -5 5 -11 9 -27 9 -35z m230 0 c0 -9 -4 -8 -9 5
-5 11 -9 27 -9 35 0 9 4 8 9 -5 5 -11 9 -27 9 -35z m735 16 c-3 -15 -8 -25
-11 -23 -2 3 -1 17 3 31 3 15 8 25 11 23 2 -3 1 -17 -3 -31z m-4181 -23 c-9
-27 -18 -50 -21 -53 -6 -6 5 41 18 75 17 44 19 27 3 -22z m3936 -3 c0 -9 -4
-8 -9 5 -5 11 -9 27 -9 35 0 9 4 8 9 -5 5 -11 9 -27 9 -35z m1338 28 c-3 -8
-6 -5 -6 6 -1 11 2 17 5 13 3 -3 4 -12 1 -19z m242 -28 c0 -9 -4 -8 -9 5 -5
11 -9 27 -9 35 0 9 4 8 9 -5 5 -11 9 -27 9 -35z m665 16 c-3 -15 -8 -25 -11
-23 -2 3 -1 17 3 31 3 15 8 25 11 23 2 -3 1 -17 -3 -31z m536 25 c0 -6 -4 -13
-10 -16 -5 -3 -10 1 -10 9 0 9 5 16 10 16 6 0 10 -4 10 -9z m1176 -28 c-8 -15
-15 -25 -16 -21 0 12 23 58 27 54 3 -2 -2 -17 -11 -33z m-8435 4 c-10 -9 -11
-8 -5 6 3 10 9 15 12 12 3 -3 0 -11 -7 -18z m4653 -11 c-3 -15 -8 -25 -11 -23
-2 3 -1 17 3 31 3 15 8 25 11 23 2 -3 1 -17 -3 -31z m1883 12 c-3 -8 -6 -5 -6
6 -1 11 2 17 5 13 3 -3 4 -12 1 -19z m250 0 c-3 -8 -6 -5 -6 6 -1 11 2 17 5
13 3 -3 4 -12 1 -19z m1433 -13 c0 -5 -5 -3 -10 5 -5 8 -10 20 -10 25 0 6 5 3
10 -5 5 -8 10 -19 10 -25z m-7641 -25 c0 -9 -4 -8 -9 5 -5 11 -9 27 -9 35 0 9
4 8 9 -5 5 -11 9 -27 9 -35z m1171 30 c6 -11 8 -20 6 -20 -3 0 -10 9 -16 20
-6 11 -8 20 -6 20 3 0 10 -9 16 -20z m6606 -17 c-8 -15 -15 -25 -16 -21 0 12
23 58 27 54 3 -2 -2 -17 -11 -33z m-2898 -63 c0 -8 -6 1 -13 20 -7 19 -13 42
-13 50 0 8 6 -1 13 -20 7 -19 13 -42 13 -50z m2532 45 c0 -5 -5 -3 -10 5 -5 8
-10 20 -10 25 0 6 5 3 10 -5 5 -8 10 -19 10 -25z m-8252 -10 c-21 -19 -43 -35
-50 -35 -7 0 1 8 17 18 17 11 36 26 44 35 7 10 16 17 20 17 3 0 -11 -16 -31
-35z m239 14 c-15 -20 -76 -69 -86 -69 -3 0 7 11 24 23 16 12 38 32 49 44 25
29 32 30 13 2z m1513 1 c6 -11 8 -20 6 -20 -3 0 -10 9 -16 20 -6 11 -8 20 -6
20 3 0 10 -9 16 -20z m1083 -35 c-26 -30 -51 -55 -55 -55 -4 0 16 25 44 55 66
71 73 71 11 0z m3681 21 c-3 -15 -8 -25 -11 -23 -2 3 -1 17 3 31 3 15 8 25 11
23 2 -3 1 -17 -3 -31z m523 12 c-3 -8 -6 -5 -6 6 -1 11 2 17 5 13 3 -3 4 -12
1 -19z m761 -88 c0 -8 -8 8 -18 35 -10 28 -18 57 -18 65 0 8 8 -7 18 -35 10
-27 18 -57 18 -65z m-3759 50 c0 -9 -4 -8 -9 5 -5 11 -9 27 -9 35 0 9 4 8 9
-5 5 -11 9 -27 9 -35z m405 16 c-3 -15 -8 -25 -11 -23 -2 3 -1 17 3 31 3 15 8
25 11 23 2 -3 1 -17 -3 -31z m523 12 c-3 -8 -6 -5 -6 6 -1 11 2 17 5 13 3 -3
4 -12 1 -19z m2591 -58 c0 -8 -6 1 -13 20 -7 19 -13 42 -13 50 0 8 6 -1 13
-20 7 -19 13 -42 13 -50z m942 45 c0 -5 -5 -3 -10 5 -5 8 -10 20 -10 25 0 6 5
3 10 -5 5 -8 10 -19 10 -25z m-6455 -5 c9 -16 13 -30 11 -30 -3 0 -12 14 -21
30 -9 17 -13 30 -11 30 3 0 12 -13 21 -30z m2460 -16 c-17 -34 -20 -18 -4 23
6 15 13 23 15 17 3 -6 -2 -24 -11 -40z m242 24 c-3 -8 -6 -5 -6 6 -1 11 2 17
5 13 3 -3 4 -12 1 -19z m1362 -28 c0 -9 -4 -8 -9 5 -5 11 -9 27 -9 35 0 9 4 8
9 -5 5 -11 9 -27 9 -35z m230 0 c0 -9 -4 -8 -9 5 -5 11 -9 27 -9 35 0 9 4 8 9
-5 5 -11 9 -27 9 -35z m251 22 c0 -15 -2 -15 -10 -2 -13 20 -13 33 0 25 6 -3
10 -14 10 -23z m377 6 c-3 -8 -6 -5 -6 6 -1 11 2 17 5 13 3 -3 4 -12 1 -19z
m1699 -15 c-8 -15 -15 -25 -16 -21 0 12 23 58 27 54 3 -2 -2 -17 -11 -33z
m-3769 5 c-3 -8 -6 -5 -6 6 -1 11 2 17 5 13 3 -3 4 -12 1 -19z m592 -28 c0 -9
-4 -8 -9 5 -5 11 -9 27 -9 35 0 9 4 8 9 -5 5 -11 9 -27 9 -35z m1328 28 c-3
-8 -6 -5 -6 6 -1 11 2 17 5 13 3 -3 4 -12 1 -19z m-2550 -10 c-3 -8 -6 -5 -6
6 -1 11 2 17 5 13 3 -3 4 -12 1 -19z m4319 -15 c-8 -15 -15 -25 -16 -21 0 12
23 58 27 54 3 -2 -2 -17 -11 -33z m-6801 -3 c9 -16 13 -30 11 -30 -3 0 -12 14
-21 30 -9 17 -13 30 -11 30 3 0 12 -13 21 -30z m3169 -4 c-3 -15 -8 -25 -11
-23 -2 3 -1 17 3 31 3 15 8 25 11 23 2 -3 1 -17 -3 -31z m2510 -30 c-10 -31
-19 -54 -22 -52 -2 2 4 29 14 60 10 31 19 54 22 52 2 -2 -4 -29 -14 -60z
m-6770 -10 c-10 -31 -19 -54 -22 -52 -2 2 4 29 14 60 10 31 19 54 22 52 2 -2
-4 -29 -14 -60z m414 -16 c0 -8 -6 1 -13 20 -7 19 -13 42 -13 50 0 8 6 -1 13
-20 7 -19 13 -42 13 -50z m3436 10 c4 -24 3 -29 -3 -15 -4 11 -11 36 -15 55
-4 24 -3 29 3 15 4 -11 11 -36 15 -55z m225 20 c0 -9 -4 -8 -9 5 -5 11 -9 27
-9 35 0 9 4 8 9 -5 5 -11 9 -27 9 -35z m625 -14 c-10 -31 -19 -54 -22 -52 -2
2 4 29 14 60 10 31 19 54 22 52 2 -2 -4 -29 -14 -60z m1560 30 c-3 -15 -8 -25
-11 -23 -2 3 -1 17 3 31 3 15 8 25 11 23 2 -3 1 -17 -3 -31z m1570 -16 c5 -17
4 -20 -2 -10 -5 8 -13 26 -16 40 -5 17 -4 20 2 10 5 -8 13 -26 16 -40z m-8601
33 c-7 -2 -21 -2 -30 0 -10 3 -4 5 12 5 17 0 24 -2 18 -5z m3102 -23 c9 -16
13 -30 11 -30 -3 0 -12 14 -21 30 -9 17 -13 30 -11 30 3 0 12 -13 21 -30z
m1862 8 c-3 -8 -6 -5 -6 6 -1 11 2 17 5 13 3 -3 4 -12 1 -19z m1710 0 c-3 -8
-6 -5 -6 6 -1 11 2 17 5 13 3 -3 4 -12 1 -19z m230 0 c-3 -8 -6 -5 -6 6 -1 11
2 17 5 13 3 -3 4 -12 1 -19z m190 0 c-3 -8 -6 -5 -6 6 -1 11 2 17 5 13 3 -3 4
-12 1 -19z m1263 -13 c0 -5 -5 -3 -10 5 -5 8 -10 20 -10 25 0 6 5 3 10 -5 5
-8 10 -19 10 -25z m-4221 -25 c0 -9 -4 -8 -9 5 -5 11 -9 27 -9 35 0 9 4 8 9
-5 5 -11 9 -27 9 -35z m-1969 0 c11 -22 18 -40 15 -40 -2 0 -14 18 -25 40 -11
22 -18 40 -15 40 2 0 14 -18 25 -40z m4039 -10 c0 -9 -4 -8 -9 5 -5 11 -9 27
-9 35 0 9 4 8 9 -5 5 -11 9 -27 9 -35z m425 16 c-3 -15 -8 -25 -11 -23 -2 3
-1 17 3 31 3 15 8 25 11 23 2 -3 1 -17 -3 -31z m2082 -3 c-8 -15 -15 -25 -16
-21 0 12 23 58 27 54 3 -2 -2 -17 -11 -33z m-8510 12 c17 -16 14 -18 -10 -9
-9 3 -16 10 -16 15 0 13 9 11 26 -6z m753 -35 c0 -9 -4 -8 -9 5 -5 11 -9 27
-9 35 0 9 4 8 9 -5 5 -11 9 -27 9 -35z m5605 16 c-3 -15 -8 -25 -11 -23 -2 3
-1 17 3 31 3 15 8 25 11 23 2 -3 1 -17 -3 -31z m-7057 -38 c-2 -13 -4 -3 -4
22 0 25 2 35 4 23 2 -13 2 -33 0 -45z m4872 12 c0 -9 -4 -8 -9 5 -5 11 -9 27
-9 35 0 9 4 8 9 -5 5 -11 9 -27 9 -35z m115 16 c-3 -15 -8 -25 -11 -23 -2 3
-1 17 3 31 3 15 8 25 11 23 2 -3 1 -17 -3 -31z m2205 -16 c0 -9 -4 -8 -9 5 -5
11 -9 27 -9 35 0 9 4 8 9 -5 5 -11 9 -27 9 -35z m388 28 c-3 -8 -6 -5 -6 6 -1
11 2 17 5 13 3 -3 4 -12 1 -19z m1554 -5 c-12 -20 -14 -14 -5 12 4 9 9 14 11
11 3 -2 0 -13 -6 -23z m-6716 -48 c16 -27 24 -45 18 -40 -6 6 -23 33 -38 60
-16 28 -24 46 -18 40 6 -5 23 -32 38 -60z m3092 43 c-3 -8 -6 -5 -6 6 -1 11 2
17 5 13 3 -3 4 -12 1 -19z m1420 0 c-3 -8 -6 -5 -6 6 -1 11 2 17 5 13 3 -3 4
-12 1 -19z m1943 -13 c0 -5 -5 -3 -10 5 -5 8 -10 20 -10 25 0 6 5 3 10 -5 5
-8 10 -19 10 -25z m-8094 -4 c21 -15 48 -39 59 -52 12 -15 6 -12 -15 8 -19 17
-51 40 -70 52 -19 11 -30 21 -24 21 6 0 29 -13 50 -29z m4268 -5 c-3 -15 -8
-25 -11 -23 -2 3 -1 17 3 31 3 15 8 25 11 23 2 -3 1 -17 -3 -31z m320 -36 c4
-24 3 -29 -3 -15 -4 11 -11 36 -15 55 -4 24 -3 29 3 15 4 -11 11 -36 15 -55z
m2143 48 c-3 -8 -6 -5 -6 6 -1 11 2 17 5 13 3 -3 4 -12 1 -19z m-3872 -18 c9
-16 13 -30 11 -30 -3 0 -12 14 -21 30 -9 17 -13 30 -11 30 3 0 12 -13 21 -30z
m1802 8 c-3 -8 -6 -5 -6 6 -1 11 2 17 5 13 3 -3 4 -12 1 -19z m1980 0 c-3 -8
-6 -5 -6 6 -1 11 2 17 5 13 3 -3 4 -12 1 -19z m751 -58 c0 -8 -6 1 -13 20 -7
19 -13 42 -13 50 0 8 6 -1 13 -20 7 -19 13 -42 13 -50z m946 64 c3 -8 2 -12
-4 -9 -6 3 -10 10 -10 16 0 14 7 11 14 -7z m-4465 -44 c0 -9 -4 -8 -9 5 -5 11
-9 27 -9 35 0 9 4 8 9 -5 5 -11 9 -27 9 -35z m-4166 33 c-13 -2 -33 -2 -45 0
-13 2 -3 4 22 4 25 0 35 -2 23 -4z m5006 -47 c-6 -26 -13 -45 -16 -43 -2 3 1
26 8 51 6 26 13 45 16 43 2 -3 -1 -26 -8 -51z m610 4 c0 -9 -4 -8 -9 5 -5 11
-9 27 -9 35 0 9 4 8 9 -5 5 -11 9 -27 9 -35z m620 0 c0 -9 -4 -8 -9 5 -5 11
-9 27 -9 35 0 9 4 8 9 -5 5 -11 9 -27 9 -35z m2457 13 c-8 -15 -15 -25 -16
-21 0 12 23 58 27 54 3 -2 -2 -17 -11 -33z m-8617 13 c15 -8 34 -23 42 -33 13
-17 13 -17 -6 -1 -12 9 -36 24 -55 32 -19 8 -29 15 -22 16 7 0 25 -6 41 -14z
m4580 -36 c0 -9 -4 -8 -9 5 -5 11 -9 27 -9 35 0 9 4 8 9 -5 5 -11 9 -27 9 -35z
m1895 16 c-3 -15 -8 -25 -11 -23 -2 3 -1 17 3 31 3 15 8 25 11 23 2 -3 1 -17
-3 -31z m460 0 c-3 -15 -8 -25 -11 -23 -2 3 -1 17 3 31 3 15 8 25 11 23 2 -3
1 -17 -3 -31z m1396 -1 c0 -5 -5 -3 -10 5 -5 8 -10 20 -10 25 0 6 5 3 10 -5 5
-8 10 -19 10 -25z m-8463 -273 c-1 -53 -3 -7 -3 103 0 110 2 154 3 97 2 -57 2
-147 0 -200z m867 234 c-10 -31 -19 -54 -22 -52 -2 2 4 29 14 60 10 31 19 54
22 52 2 -2 -4 -29 -14 -60z m1411 34 c9 -16 13 -30 11 -30 -3 0 -12 14 -21 30
-9 17 -13 30 -11 30 3 0 12 -13 21 -30z m2172 8 c-3 -8 -6 -5 -6 6 -1 11 2 17
5 13 3 -3 4 -12 1 -19z m82 -27 c-7 -23 -14 -39 -16 -37 -3 2 1 23 8 45 7 23
14 39 16 37 3 -2 -1 -23 -8 -45z m468 27 c-3 -8 -6 -5 -6 6 -1 11 2 17 5 13 3
-3 4 -12 1 -19z m921 -58 c0 -8 -6 1 -13 20 -7 19 -13 42 -13 50 0 8 6 -1 13
-20 7 -19 13 -42 13 -50z m849 58 c-3 -8 -6 -5 -6 6 -1 11 2 17 5 13 3 -3 4
-12 1 -19z m242 -28 c0 -9 -4 -8 -9 5 -5 11 -9 27 -9 35 0 9 4 8 9 -5 5 -11 9
-27 9 -35z m118 28 c-3 -8 -6 -5 -6 6 -1 11 2 17 5 13 3 -3 4 -12 1 -19z m372
-27 c-7 -23 -14 -39 -16 -37 -3 2 1 23 8 45 7 23 14 39 16 37 3 -2 -1 -23 -8
-45z m-4534 7 c14 -29 14 -31 0 -14 -8 11 -15 24 -15 29 0 5 -7 4 -15 -3 -13
-11 -14 -10 -9 4 9 24 22 19 39 -16z m2454 -47 c-13 -39 -25 -69 -27 -67 -2 3
7 36 19 75 13 39 25 69 27 67 2 -3 -7 -36 -19 -75z m1110 29 c0 -9 -4 -8 -9 5
-5 11 -9 27 -9 35 0 9 4 8 9 -5 5 -11 9 -27 9 -35z m1450 0 c0 -9 -4 -8 -9 5
-5 11 -9 27 -9 35 0 9 4 8 9 -5 5 -11 9 -27 9 -35z m-8439 -97 c-33 -120 -83
-207 -170 -293 -41 -42 -98 -88 -126 -102 -142 -76 -316 -76 -458 0 -76 40
-195 164 -238 247 -38 73 -68 164 -67 199 0 12 9 -12 19 -52 29 -110 84 -206
165 -287 38 -39 93 -83 121 -97 142 -76 316 -76 458 0 75 40 185 154 228 237
39 75 77 197 80 255 l1 35 4 -32 c2 -18 -5 -68 -17 -110z m5049 88 c-7 -23
-14 -39 -16 -37 -3 2 1 23 8 45 7 23 14 39 16 37 3 -2 -1 -23 -8 -45z m-1344
9 c9 -16 13 -30 11 -30 -3 0 -12 14 -21 30 -9 17 -13 30 -11 30 3 0 12 -13 21
-30z m3409 -14 c-3 -15 -8 -25 -11 -23 -2 3 -1 17 3 31 3 15 8 25 11 23 2 -3
1 -17 -3 -31z m463 12 c-3 -8 -6 -5 -6 6 -1 11 2 17 5 13 3 -3 4 -12 1 -19z
m1380 -233 l-1 -180 -6 185 c-3 114 -10 196 -18 213 -19 45 -13 46 8 2 16 -35
18 -64 17 -220z m-7438 195 c0 -9 -4 -8 -9 5 -5 11 -9 27 -9 35 0 9 4 8 9 -5
5 -11 9 -27 9 -35z m5250 0 c0 -9 -4 -8 -9 5 -5 11 -9 27 -9 35 0 9 4 8 9 -5
5 -11 9 -27 9 -35z m2411 -150 l-6 -195 -2 182 c-1 100 1 189 4 198 4 9 7 15
8 13 0 -2 -1 -91 -4 -198z m-8510 146 c0 -12 -5 -7 -19 24 -11 24 -11 24 3 6
9 -11 16 -24 16 -30z m240 0 c0 -12 -5 -7 -19 24 -11 24 -11 24 3 6 9 -11 16
-24 16 -30z m1580 24 c6 -11 8 -20 6 -20 -3 0 -10 9 -16 20 -6 11 -8 20 -6 20
3 0 10 -9 16 -20z m2687 -2 c-3 -8 -6 -5 -6 6 -1 11 2 17 5 13 3 -3 4 -12 1
-19z m253 -51 c0 -23 -18 9 -24 43 l-7 35 16 -34 c8 -18 15 -38 15 -44z m2077
51 c-3 -8 -6 -5 -6 6 -1 11 2 17 5 13 3 -3 4 -12 1 -19z m-5739 -68 c0 -8 -6
1 -13 20 -7 19 -13 42 -13 50 0 8 6 -1 13 -20 7 -19 13 -42 13 -50z m2929 58
c-3 -8 -6 -5 -6 6 -1 11 2 17 5 13 3 -3 4 -12 1 -19z m242 -28 c0 -9 -4 -8 -9
5 -5 11 -9 27 -9 35 0 9 4 8 9 -5 5 -11 9 -27 9 -35z m498 28 c-3 -8 -6 -5 -6
6 -1 11 2 17 5 13 3 -3 4 -12 1 -19z m1810 0 c-3 -8 -6 -5 -6 6 -1 11 2 17 5
13 3 -3 4 -12 1 -19z m230 0 c-3 -8 -6 -5 -6 6 -1 11 2 17 5 13 3 -3 4 -12 1
-19z m-4012 -18 c9 -16 13 -30 11 -30 -3 0 -12 14 -21 30 -9 17 -13 30 -11 30
3 0 12 -13 21 -30z m3544 -20 c0 -9 -4 -8 -9 5 -5 11 -9 27 -9 35 0 9 4 8 9
-5 5 -11 9 -27 9 -35z m-1515 6 c-3 -15 -8 -25 -11 -23 -2 3 -1 17 3 31 3 15
8 25 11 23 2 -3 1 -17 -3 -31z m1536 -11 c-16 -47 -23 -40 -8 8 6 20 13 35 16
33 2 -3 -1 -21 -8 -41z m970 8 c-11 -17 -11 -17 -6 0 3 10 6 24 7 30 0 9 2 9
5 0 3 -7 0 -20 -6 -30z m229 -8 c0 -5 -4 -3 -9 5 -5 8 -9 22 -9 30 0 16 17
-16 18 -35z m-4484 5 c9 -16 13 -30 11 -30 -3 0 -12 14 -21 30 -9 17 -13 30
-11 30 3 0 12 -13 21 -30z m1215 -15 c-6 -15 -13 -25 -16 -22 -4 3 0 20 7 37
17 37 24 25 9 -15z m239 -5 c0 -9 -4 -8 -9 5 -5 11 -9 27 -9 35 0 9 4 8 9 -5
5 -11 9 -27 9 -35z m2292 17 c-8 -8 -11 -7 -11 4 0 20 13 34 18 19 3 -7 -1
-17 -7 -23z m-4966 -7 c9 -16 13 -30 11 -30 -3 0 -12 14 -21 30 -9 17 -13 30
-11 30 3 0 12 -13 21 -30z m2194 -20 c0 -9 -4 -8 -9 5 -5 11 -9 27 -9 35 0 9
4 8 9 -5 5 -11 9 -27 9 -35z m1450 8 c1 -5 -55 -8 -124 -8 -113 0 -125 2 -124
18 0 10 3 12 6 5 3 -9 37 -13 118 -13 112 0 113 0 109 23 -4 20 -4 21 5 2 5
-11 10 -23 10 -27z m1105 -28 c4 -24 3 -29 -3 -15 -4 11 -11 36 -15 55 -4 24
-3 29 3 15 4 -11 11 -36 15 -55z m283 48 c-3 -8 -6 -5 -6 6 -1 11 2 17 5 13 3
-3 4 -12 1 -19z m-6868 -47 c1 -35 -5 -22 -12 24 -5 28 -4 34 3 20 5 -11 9
-31 9 -44z m6100 9 c0 -9 -4 -8 -9 5 -5 11 -9 27 -9 35 0 9 4 8 9 -5 5 -11 9
-27 9 -35z m-5364 17 l120 -3 -127 -2 c-116 -2 -128 0 -128 16 0 12 3 13 8 5
5 -8 47 -13 127 -16z m5659 -21 c-3 -15 -8 -25 -11 -23 -2 3 -1 17 3 31 3 15
8 25 11 23 2 -3 1 -17 -3 -31z m-6157 -13 c-3 -10 -5 -4 -5 12 0 17 2 24 5 18
2 -7 2 -21 0 -30z m2578 7 c9 -16 13 -30 11 -30 -3 0 -12 14 -21 30 -9 17 -13
30 -11 30 3 0 12 -13 21 -30z m1504 -19 c-7 -23 -14 -39 -16 -37 -3 2 1 23 8
45 7 23 14 39 16 37 3 -2 -1 -23 -8 -45z m2538 27 c-3 -8 -6 -5 -6 6 -1 11 2
17 5 13 3 -3 4 -12 1 -19z m626 15 c-35 -2 -91 -2 -125 0 -35 2 -7 3 62 3 69
0 97 -1 63 -3z m-6964 -52 c-7 -23 -14 -39 -16 -37 -3 2 1 23 8 45 7 23 14 39
16 37 3 -2 -1 -23 -8 -45z m4268 27 c-3 -8 -6 -5 -6 6 -1 11 2 17 5 13 3 -3 4
-12 1 -19z m961 -88 c0 -8 -8 8 -18 35 -10 28 -18 57 -18 65 0 8 8 -7 18 -35
10 -27 18 -57 18 -65z m-2653 70 c9 -16 13 -30 11 -30 -3 0 -12 14 -21 30 -9
17 -13 30 -11 30 3 0 12 -13 21 -30z m1422 8 c-3 -8 -6 -5 -6 6 -1 11 2 17 5
13 3 -3 4 -12 1 -19z m-2647 -8 c6 -11 8 -20 6 -20 -3 0 -10 9 -16 20 -6 11
-8 20 -6 20 3 0 10 -9 16 -20z m4974 -24 c-3 -15 -8 -25 -11 -23 -2 3 -1 17 3
31 3 15 8 25 11 23 2 -3 1 -17 -3 -31z m-2070 -10 c-3 -15 -8 -25 -11 -23 -2
3 -1 17 3 31 3 15 8 25 11 23 2 -3 1 -17 -3 -31z m3035 -16 c0 -9 -4 -8 -9 5
-5 11 -9 27 -9 35 0 9 4 8 9 -5 5 -11 9 -27 9 -35z m-3762 18 c-3 -8 -6 -5 -6
6 -1 11 2 17 5 13 3 -3 4 -12 1 -19z m-1192 -18 c9 -16 13 -30 11 -30 -3 0
-12 14 -21 30 -9 17 -13 30 -11 30 3 0 12 -13 21 -30z m3262 8 c-3 -8 -6 -5
-6 6 -1 11 2 17 5 13 3 -3 4 -12 1 -19z m492 -28 c0 -9 -4 -8 -9 5 -5 11 -9
27 -9 35 0 9 4 8 9 -5 5 -11 9 -27 9 -35z m-5728 13 c5 -14 8 -31 6 -37 -2 -6
-7 4 -11 21 l-7 32 -152 4 -152 3 153 2 152 2 11 -27z m4626 7 c3 -11 2 -12
-4 -3 -6 9 -55 13 -158 16 l-150 3 154 -1 c128 0 155 -3 158 -15z m1916 13
c-134 -3 -153 -6 -153 -20 0 -9 -3 -14 -6 -10 -4 3 -4 13 -1 22 5 13 29 15
159 13 l153 -2 -152 -3z m-4288 -33 c9 -16 13 -30 11 -30 -3 0 -12 14 -21 30
-9 17 -13 30 -11 30 3 0 12 -13 21 -30z m1402 8 c-3 -8 -6 -5 -6 6 -1 11 2 17
5 13 3 -3 4 -12 1 -19z m1827 -12 c-3 -15 -8 -25 -11 -23 -2 3 -1 17 3 31 3
15 8 25 11 23 2 -3 1 -17 -3 -31z m-4454 4 c6 -11 8 -20 6 -20 -3 0 -10 9 -16
20 -6 11 -8 20 -6 20 3 0 10 -9 16 -20z m3284 -14 c-3 -15 -8 -25 -11 -23 -2
3 -1 17 3 31 3 15 8 25 11 23 2 -3 1 -17 -3 -31z m1986 -41 c-12 -36 -24 -65
-26 -63 -2 2 6 34 18 71 12 36 24 65 26 62 2 -2 -6 -34 -18 -70z m-6042 -15
c0 -8 -6 1 -13 20 -7 19 -13 42 -13 50 0 8 6 -1 13 -20 7 -19 13 -42 13 -50z
m3972 5 c-12 -36 -24 -65 -26 -63 -2 2 6 34 18 71 12 36 24 65 26 62 2 -2 -6
-34 -18 -70z m1717 53 c-3 -8 -6 -5 -6 6 -1 11 2 17 5 13 3 -3 4 -12 1 -19z
m-2070 -10 c-3 -8 -6 -5 -6 6 -1 11 2 17 5 13 3 -3 4 -12 1 -19z m-4520 -25
c-3 -10 -5 -4 -5 12 0 17 2 24 5 18 2 -7 2 -21 0 -30z m312 -12 c-7 -23 -14
-39 -16 -37 -3 2 1 23 8 45 7 23 14 39 16 37 3 -2 -1 -23 -8 -45z m3530 -1 c0
-9 -4 -8 -9 5 -5 11 -9 27 -9 35 0 9 4 8 9 -5 5 -11 9 -27 9 -35z m205 16 c-3
-15 -8 -25 -11 -23 -2 3 -1 17 3 31 3 15 8 25 11 23 2 -3 1 -17 -3 -31z m263
12 c-3 -8 -6 -5 -6 6 -1 11 2 17 5 13 3 -3 4 -12 1 -19z m3061 -58 c0 -8 -6 1
-13 20 -7 19 -13 42 -13 50 0 8 6 -1 13 -20 7 -19 13 -42 13 -50z m-4713 40
c9 -16 13 -30 11 -30 -3 0 -12 14 -21 30 -9 17 -13 30 -11 30 3 0 12 -13 21
-30z m3242 8 c-3 -8 -6 -5 -6 6 -1 11 2 17 5 13 3 -3 4 -12 1 -19z m480 0 c-3
-8 -6 -5 -6 6 -1 11 2 17 5 13 3 -3 4 -12 1 -19z m-6620 -20 c-3 -7 -5 -2 -5
12 0 14 2 19 5 13 2 -7 2 -19 0 -25z m1948 2 c9 -16 13 -30 11 -30 -3 0 -12
14 -21 30 -9 17 -13 30 -11 30 3 0 12 -13 21 -30z m3594 -20 c0 -9 -4 -8 -9 5
-5 11 -9 27 -9 35 0 9 4 8 9 -5 5 -11 9 -27 9 -35z m1275 16 c-3 -15 -8 -25
-11 -23 -2 3 -1 17 3 31 3 15 8 25 11 23 2 -3 1 -17 -3 -31z m-3639 -6 c9 -16
13 -30 11 -30 -3 0 -12 14 -21 30 -9 17 -13 30 -11 30 3 0 12 -13 21 -30z
m1572 8 c-3 -8 -6 -5 -6 6 -1 11 2 17 5 13 3 -3 4 -12 1 -19z m1892 -48 c0 -9
-4 -8 -9 5 -5 11 -9 27 -9 35 0 9 4 8 9 -5 5 -11 9 -27 9 -35z m-6419 3 c-11
-17 -11 -17 -6 0 3 10 6 24 7 30 0 9 2 9 5 0 3 -7 0 -20 -6 -30z m699 -13 c0
-9 -4 -8 -9 5 -5 11 -9 27 -9 35 0 9 4 8 9 -5 5 -11 9 -27 9 -35z m6315 11
c-4 -17 -9 -30 -11 -27 -3 2 -2 19 2 36 9 41 17 33 9 -9z m-7260 -23 c-20 -41
-42 -66 -69 -81 -11 -6 -4 5 16 24 20 19 42 51 50 72 7 21 15 34 17 28 2 -5
-4 -25 -14 -43z m485 13 c-6 -18 -13 -30 -15 -28 -2 2 1 18 7 36 6 18 13 30
15 28 2 -2 -1 -18 -7 -36z m3640 -11 c0 -9 -4 -8 -9 5 -5 11 -9 27 -9 35 0 9
4 8 9 -5 5 -11 9 -27 9 -35z m160 1 c-7 -23 -14 -39 -16 -37 -3 2 1 23 8 45 7
23 14 39 16 37 3 -2 -1 -23 -8 -45z m308 27 c-3 -8 -6 -5 -6 6 -1 11 2 17 5
13 3 -3 4 -12 1 -19z m167 -12 c-3 -15 -8 -25 -11 -23 -2 3 -1 17 3 31 3 15 8
25 11 23 2 -3 1 -17 -3 -31z m433 12 c-3 -8 -6 -5 -6 6 -1 11 2 17 5 13 3 -3
4 -12 1 -19z m622 -23 c0 -5 -4 -3 -9 5 -5 8 -9 22 -9 30 0 16 17 -16 18 -35z
m368 13 c-3 -8 -6 -5 -6 6 -1 11 2 17 5 13 3 -3 4 -12 1 -19z m-4152 -53 c16
-27 24 -45 18 -40 -6 6 -23 33 -38 60 -16 28 -24 46 -18 40 6 -5 23 -32 38
-60z m4319 31 c-3 -15 -8 -25 -11 -23 -2 3 -1 17 3 31 3 15 8 25 11 23 2 -3 1
-17 -3 -31z m473 12 c-3 -8 -6 -5 -6 6 -1 11 2 17 5 13 3 -3 4 -12 1 -19z
m-6270 -20 c-3 -7 -5 -2 -5 12 0 14 2 19 5 13 2 -7 2 -19 0 -25z m2423 -12 c0
-12 -5 -7 -19 24 -11 24 -11 24 3 6 9 -11 16 -24 16 -30z m275 2 c16 -24 22
-38 14 -31 -15 12 -53 73 -46 73 2 0 17 -19 32 -42z m-2055 -3 c0 -5 -5 -3
-10 5 -5 8 -10 20 -10 25 0 6 5 3 10 -5 5 -8 10 -19 10 -25z m3419 -15 c0 -9
-4 -8 -9 5 -5 11 -9 27 -9 35 0 9 4 8 9 -5 5 -11 9 -27 9 -35z m584 -70 c5 -8
1 -6 -7 4 -11 13 -15 37 -15 70 l2 51 6 -55 c3 -30 10 -62 14 -70z m396 39 c1
-24 -5 -41 -16 -50 -16 -13 -17 -12 -4 4 10 12 12 33 8 70 -3 33 -2 45 3 32 5
-11 9 -36 9 -56z m1078 49 c-3 -8 -6 -5 -6 6 -1 11 2 17 5 13 3 -3 4 -12 1
-19z m494 -5 c-12 -20 -14 -14 -5 12 4 9 9 14 11 11 3 -2 0 -13 -6 -23z
m-2076 -25 c-20 -38 -54 -78 -68 -78 -5 0 1 9 15 19 13 11 33 38 43 60 10 23
20 39 22 37 3 -2 -3 -19 -12 -38z m745 7 c0 -5 -5 -3 -10 5 -5 8 -10 20 -10
25 0 6 5 3 10 -5 5 -8 10 -19 10 -25z m977 13 c-3 -8 -6 -5 -6 6 -1 11 2 17 5
13 3 -3 4 -12 1 -19z m840 0 c-3 -8 -6 -5 -6 6 -1 11 2 17 5 13 3 -3 4 -12 1
-19z m-7860 -20 c-3 -7 -5 -2 -5 12 0 14 2 19 5 13 2 -7 2 -19 0 -25z m424 15
c-5 -10 -26 -34 -47 -53 -36 -33 -35 -32 7 17 47 56 55 63 40 36z m3928 -33
c0 -9 -4 -8 -9 5 -5 11 -9 27 -9 35 0 9 4 8 9 -5 5 -11 9 -27 9 -35z m598 28
c-3 -8 -6 -5 -6 6 -1 11 2 17 5 13 3 -3 4 -12 1 -19z m3163 -13 c0 -5 -5 -3
-10 5 -5 8 -10 20 -10 25 0 6 5 3 10 -5 5 -8 10 -19 10 -25z m-7440 17 c0 -5
-7 -17 -15 -28 -14 -18 -14 -17 -4 9 12 27 19 34 19 19z m5749 -42 c0 -9 -4
-8 -9 5 -5 11 -9 27 -9 35 0 9 4 8 9 -5 5 -11 9 -27 9 -35z m1028 28 c-3 -8
-6 -5 -6 6 -1 11 2 17 5 13 3 -3 4 -12 1 -19z m-6294 -67 c-10 -9 -12 -10 -5
-1 6 7 13 30 14 50 l1 35 4 -34 c3 -24 -1 -39 -14 -50z m318 -5 c24 -8 29 -16
27 -36 l-3 -25 -215 0 -215 0 -3 28 c-3 25 -1 27 35 25 37 -1 37 -1 6 -5 -25
-3 -33 -9 -33 -24 0 -18 9 -19 210 -19 197 0 210 1 210 18 0 11 -11 24 -25 30
-24 11 -65 67 -65 87 1 6 10 -7 21 -29 13 -23 32 -43 50 -50z m216 62 c-3 -8
-6 -5 -6 6 -1 11 2 17 5 13 3 -3 4 -12 1 -19z m124 -52 c13 -9 36 -16 52 -16
25 0 28 -3 25 -27 l-3 -28 -160 0 -160 0 -3 28 c-3 24 0 27 25 26 23 -2 24 -2
6 -6 -15 -3 -23 -12 -23 -24 0 -18 9 -19 155 -19 148 0 155 1 155 20 0 15 -7
20 -26 20 -31 0 -94 59 -94 87 1 12 5 7 14 -13 8 -17 24 -39 37 -48z m1145 -3
c10 -7 13 -13 6 -13 -17 0 -42 42 -41 70 1 21 2 19 9 -10 5 -18 16 -40 26 -47z
m244 31 c0 -12 -8 -28 -17 -35 -16 -13 -17 -12 -4 4 9 11 11 29 7 50 -4 23 -3
28 4 17 5 -8 10 -25 10 -36z m4650 -36 c-12 -10 -35 -18 -51 -18 -22 0 -29 -5
-29 -20 0 -19 7 -20 210 -20 200 0 210 1 210 19 0 11 -6 22 -12 24 -8 3 -5 6
5 6 14 1 18 -5 15 -26 l-3 -28 -215 0 -215 0 -3 28 c-3 24 0 27 28 27 48 0 70
16 71 53 l2 32 4 -30 c4 -22 -1 -34 -17 -47z m-3023 40 c-3 -8 -6 -5 -6 6 -1
11 2 17 5 13 3 -3 4 -12 1 -19z m107 -12 c-3 -15 -8 -25 -11 -23 -2 3 -1 17 3
31 3 15 8 25 11 23 2 -3 1 -17 -3 -31z m1120 18 c3 -8 2 -12 -4 -9 -6 3 -10
10 -10 16 0 14 7 11 14 -7z m-6033 -11 c13 -16 12 -17 -3 -4 -17 13 -22 21
-14 21 2 0 10 -8 17 -17z m3489 -8 c13 -14 21 -25 18 -25 -2 0 -15 11 -28 25
-13 14 -21 25 -18 25 2 0 15 -11 28 -25z m3014 -9 c-3 -15 -8 -25 -11 -23 -2
3 -1 17 3 31 3 15 8 25 11 23 2 -3 1 -17 -3 -31z m373 12 c-3 -8 -6 -5 -6 6
-1 11 2 17 5 13 3 -3 4 -12 1 -19z m443 2 c-6 -11 -20 -25 -32 -31 -18 -9 -16
-5 7 19 35 37 39 39 25 12z m152 -30 c13 -5 17 -9 9 -9 -20 -1 -51 29 -50 48
0 10 4 8 9 -7 5 -12 20 -27 32 -32z m1267 1 c11 -6 38 -11 61 -11 39 0 41 -1
38 -27 l-3 -28 -250 0 -250 0 -3 28 c-3 26 -2 27 45 25 l48 -1 -42 -4 c-35 -3
-43 -8 -43 -24 0 -18 9 -19 245 -19 238 0 245 1 245 20 0 17 -7 20 -39 20 -43
0 -91 31 -90 58 0 13 3 11 9 -5 5 -12 18 -26 29 -32z m-9004 9 c-10 -11 -22
-20 -26 -20 -5 0 2 10 14 23 27 28 38 25 12 -3z m2926 3 c-12 -20 -14 -14 -5
12 4 9 9 14 11 11 3 -2 0 -13 -6 -23z m1773 -7 c-3 -15 -8 -25 -11 -23 -2 3
-1 17 3 31 3 15 8 25 11 23 2 -3 1 -17 -3 -31z m2543 12 c-3 -8 -6 -5 -6 6 -1
11 2 17 5 13 3 -3 4 -12 1 -19z m1474 -11 l-24 -22 19 27 c10 14 21 24 23 22
3 -3 -6 -15 -18 -27z m-7831 19 c0 -2 -8 -10 -17 -17 -16 -13 -17 -12 -4 4 13
16 21 21 21 13z m1645 -26 c9 -16 13 -30 11 -30 -3 0 -12 14 -21 30 -9 17 -13
30 -11 30 3 0 12 -13 21 -30z m2084 -20 c0 -9 -4 -8 -9 5 -5 11 -9 27 -9 35 0
9 4 8 9 -5 5 -11 9 -27 9 -35z m3776 30 c10 -11 16 -20 13 -20 -3 0 -13 9 -23
20 -10 11 -16 20 -13 20 3 0 13 -9 23 -20z m-8078 4 c-3 -3 -12 -4 -19 -1 -8
3 -5 6 6 6 11 1 17 -2 13 -5z m1589 -9 c-11 -8 -25 -15 -30 -15 -6 1 0 7 14
15 32 19 40 18 16 0z m3193 -35 c0 -9 -4 -8 -9 5 -5 11 -9 27 -9 35 0 9 4 8 9
-5 5 -11 9 -27 9 -35z m1262 21 c15 -6 18 -10 8 -10 -9 -1 -25 7 -36 17 -10 9
-14 14 -8 10 6 -4 22 -12 36 -17z m328 -21 c0 -9 -4 -8 -9 5 -5 11 -9 27 -9
35 0 9 4 8 9 -5 5 -11 9 -27 9 -35z m468 18 c-3 -8 -6 -5 -6 6 -1 11 2 17 5
13 3 -3 4 -12 1 -19z m-6577 7 c0 -6 -56 -35 -67 -35 -4 1 8 9 27 20 39 22 40
22 40 15z m5117 -1 c-3 -3 -12 -4 -19 -1 -8 3 -5 6 6 6 11 1 17 -2 13 -5z
m1540 -16 c-3 -8 -6 -5 -6 6 -1 11 2 17 5 13 3 -3 4 -12 1 -19z m-7299 5 c-19
-3 -28 -10 -28 -23 0 -19 11 -20 238 -23 l237 -3 -240 1 -240 0 -3 28 c-3 25
-1 27 30 26 30 -2 31 -2 6 -6z m884 -18 l-4 -25 146 0 c137 0 146 1 146 19 0
11 -8 22 -17 24 -13 3 -12 5 5 6 20 1 23 -3 20 -26 l-3 -28 -150 0 -150 0 -3
28 c-2 15 1 27 6 27 5 0 7 -11 4 -25z m2041 18 c-25 -3 -33 -9 -33 -24 0 -18
9 -19 220 -19 211 0 220 1 220 19 0 12 -8 21 -22 24 -19 4 -18 4 5 6 25 1 28
-2 25 -26 l-3 -28 -225 0 -225 0 -3 28 c-3 25 -1 27 35 25 37 -1 37 -1 6 -5z
m535 0 c-10 -2 -18 -14 -19 -26 0 -12 -3 -16 -6 -9 -8 20 5 42 24 41 17 -1 17
-2 1 -6z m450 -20 l-3 -28 -228 0 -227 -1 225 3 c214 3 225 4 225 22 0 11 -8
22 -17 24 -13 3 -12 5 5 6 20 1 23 -3 20 -26z m1319 5 c-3 -8 -6 -5 -6 6 -1
11 2 17 5 13 3 -3 4 -12 1 -19z m285 -3 l-4 -25 146 0 c137 0 146 1 146 19 0
11 -8 22 -17 24 -13 3 -12 5 5 6 20 1 23 -3 20 -26 l-3 -28 -150 0 -150 0 -3
28 c-2 15 1 27 6 27 5 0 7 -11 4 -25z m531 18 c-25 -3 -33 -9 -33 -24 0 -19 7
-20 214 -17 118 2 212 0 209 -4 -2 -5 -99 -8 -214 -8 -177 0 -211 2 -215 15
-11 28 4 45 38 43 l33 -1 -32 -4z m1835 -20 l-3 -28 -144 -3 c-80 -1 -148 1
-152 5 -5 4 59 7 141 5 144 -3 150 -2 150 17 0 11 -8 22 -17 24 -13 3 -12 5 5
6 20 1 23 -3 20 -26z m-7321 -9 c-3 -3 -12 -4 -19 -1 -8 3 -5 6 6 6 11 1 17
-2 13 -5z m2078 -20 c9 -15 12 -23 6 -20 -11 7 -35 46 -28 46 3 0 12 -12 22
-26z m2064 -19 c0 -5 -4 -3 -9 5 -5 8 -9 22 -9 30 0 16 17 -16 18 -35z m-4186
28 c-7 -2 -21 -2 -30 0 -10 3 -4 5 12 5 17 0 24 -2 18 -5z m4660 -13 c3 -11 1
-18 -4 -14 -5 3 -9 12 -9 20 0 20 7 17 13 -6z m39 -12 c-8 -8 -9 -4 -5 13 4
13 8 18 11 10 2 -7 -1 -18 -6 -23z m1551 12 c3 -11 1 -18 -4 -14 -5 3 -9 12
-9 20 0 20 7 17 13 -6z m39 -12 c-8 -8 -9 -4 -5 13 4 13 8 18 11 10 2 -7 -1
-18 -6 -23z m-2071 -1 c-10 -9 -11 -8 -5 6 3 10 9 15 12 12 3 -3 0 -11 -7 -18z
m2513 8 c3 -8 1 -15 -4 -15 -6 0 -10 7 -10 15 0 8 2 15 4 15 2 0 6 -7 10 -15z
m-8056 -122 c-26 -2 -71 -2 -100 0 -29 2 -8 3 47 3 55 0 79 -1 53 -3z m280 0
c-21 -2 -55 -2 -75 0 -21 2 -4 4 37 4 41 0 58 -2 38 -4z m256 -1 c2 -4 -11 -6
-30 -4 -19 2 -34 6 -34 8 0 8 59 4 64 -4z m177 -9 c11 -15 11 -16 -1 -5 -8 6
-24 12 -37 12 -23 0 -23 -2 -23 -110 l0 -110 25 0 c23 0 25 3 26 53 1 28 1 57
0 62 -2 12 27 -23 40 -50 7 -14 4 -12 -10 5 l-21 25 0 -52 0 -53 -35 0 -35 0
0 113 c0 63 3 117 7 120 13 13 51 7 64 -10z m129 8 c0 -4 -11 -6 -25 -3 -25 4
-25 3 -25 -62 0 -37 -3 -65 -7 -63 -5 3 -6 35 -5 71 4 65 4 66 33 66 16 0 29
-4 29 -9z m110 -33 l0 -43 41 43 c32 33 48 42 75 42 19 0 34 -4 34 -10 0 -5
-19 -27 -42 -49 -38 -35 -41 -41 -28 -57 13 -18 13 -18 -5 -2 -19 18 -18 19
25 63 l44 45 -30 0 c-22 0 -41 -11 -69 -40 -21 -22 -43 -40 -47 -40 -4 0 -8
18 -8 40 0 36 -2 40 -25 40 l-25 0 0 -110 0 -110 25 0 c22 0 25 4 25 33 0 31
14 57 32 57 4 0 19 -20 34 -45 21 -37 31 -45 55 -45 34 0 35 3 11 38 -26 37
-34 52 -29 52 7 0 57 -79 57 -90 0 -5 -16 -10 -35 -10 -31 0 -39 5 -63 45 -15
25 -31 44 -37 42 -5 -2 -11 -22 -13 -45 -3 -41 -4 -42 -38 -42 l-34 0 0 113
c0 63 3 117 7 120 3 4 19 7 35 7 26 0 28 -3 28 -42z m348 35 l-68 -4 0 -109 0
-110 25 0 c23 0 25 4 25 40 l0 40 43 -2 42 -1 -37 -4 c-37 -4 -38 -5 -38 -44
0 -38 -1 -39 -35 -39 l-35 0 0 113 c0 63 3 117 7 120 3 4 36 6 72 5 l66 -2
-67 -3z m332 -23 l0 -30 -60 0 c-46 0 -60 -3 -60 -15 0 -10 15 -15 55 -18 l55
-4 -57 1 c-51 1 -58 3 -58 21 0 17 8 20 58 23 48 3 57 6 57 22 0 17 -9 20 -87
23 l-88 3 93 2 92 2 0 -30z m340 22 c0 -5 -13 -7 -30 -4 -16 2 -30 6 -30 8 0
2 14 4 30 4 17 0 30 -4 30 -8z m150 -3 c0 -7 -18 -31 -40 -55 -22 -24 -40 -40
-40 -36 0 5 16 23 35 42 42 41 44 50 7 50 -19 0 -40 -12 -67 -40 -21 -22 -42
-40 -46 -40 -5 0 13 20 39 45 36 34 55 45 80 45 17 0 32 -5 32 -11z m138 4
c-21 -2 -55 -2 -75 0 -21 2 -4 4 37 4 41 0 58 -2 38 -4z m312 0 c0 -5 -28 -7
-62 -5 -113 5 -125 9 -30 10 50 1 92 -1 92 -5z m113 0 l-63 -4 0 -109 0 -109
68 -4 67 -3 -72 -2 -73 -2 0 120 0 120 68 -2 67 -2 -62 -3z m227 -113 l0 -120
-32 1 c-31 2 -31 2 -5 6 l27 4 0 109 0 109 -27 4 c-26 4 -26 4 5 6 l32 1 0
-120z m220 90 c0 -28 -2 -30 -37 -28 -37 1 -37 1 -5 5 24 3 32 9 32 24 0 17
-8 19 -90 19 -82 0 -90 -2 -90 -19 0 -15 8 -21 33 -23 l32 -3 3 -87 c3 -86 3
-88 27 -88 23 0 24 3 28 82 l3 83 2 -87 2 -88 -35 0 -35 0 0 90 0 90 -35 0
c-30 0 -35 3 -35 23 0 13 3 27 7 30 3 4 48 7 100 7 l93 0 0 -30z m130 26 c0
-2 -16 -6 -35 -8 -19 -2 -35 0 -35 4 0 4 16 8 35 8 19 0 35 -2 35 -4z m180
-18 c10 -21 10 -21 -3 -5 -8 9 -24 17 -36 17 -20 0 -21 -4 -21 -110 0 -103 1
-110 20 -110 18 0 20 7 20 60 0 63 9 75 28 38 6 -13 21 -39 33 -58 30 -47 9
-26 -25 25 l-26 40 0 -58 c0 -57 0 -57 -30 -57 l-30 0 0 120 0 120 30 0 c20 0
33 -7 40 -22z m128 -100 l3 -118 -38 2 c-37 1 -37 1 -5 5 l32 4 0 110 0 109
-25 0 c-23 0 -25 -3 -26 -52 -1 -29 -1 -60 0 -68 2 -10 -2 -8 -12 5 -30 43
-49 75 -44 75 3 0 14 -15 26 -32 l21 -33 0 51 c0 58 5 66 40 62 l25 -3 3 -117z
m220 115 l-68 -4 0 -109 0 -109 28 -4 c25 -4 25 -4 -5 -6 l-33 -1 0 120 0 120
73 -2 72 -2 -67 -3z m292 3 c0 -2 3 -13 6 -23 5 -17 5 -17 -6 0 -6 9 -22 17
-35 17 -13 0 -29 -8 -34 -17 -12 -20 -14 -13 -5 11 4 10 18 16 40 16 19 0 34
-2 34 -4z m170 -3 c0 -5 -13 -8 -30 -8 -16 0 -30 3 -30 8 0 4 14 7 30 7 17 0
30 -3 30 -7z m243 -29 c12 -18 24 -34 27 -34 3 0 15 16 28 35 17 27 29 35 52
35 30 0 42 -21 20 -35 -6 -3 -7 1 -4 9 5 12 0 16 -20 16 -19 0 -31 -10 -48
-40 -13 -22 -25 -40 -28 -40 -3 0 -15 18 -28 40 -19 33 -28 40 -53 40 -20 0
-28 -4 -23 -12 4 -6 3 -8 -3 -5 -6 4 -29 -13 -52 -38 -22 -24 -41 -41 -41 -37
0 5 16 23 35 42 42 41 44 50 7 50 -19 0 -40 -12 -67 -40 -21 -22 -43 -40 -47
-40 -4 0 -7 15 -7 33 1 32 1 32 8 4 l6 -28 39 40 c38 39 41 40 108 40 67 0 69
-1 91 -35z m230 29 c-21 -3 -34 -11 -38 -24 -4 -11 -9 -18 -12 -16 -2 3 0 15
7 26 8 15 19 21 43 19 l32 -1 -32 -4z m297 -23 c0 -28 -2 -30 -37 -28 -37 1
-37 1 -5 5 24 3 32 9 32 24 0 17 -8 19 -90 19 -82 0 -90 -2 -90 -19 0 -15 8
-21 33 -24 31 -4 31 -4 -5 -5 -36 -2 -38 0 -38 28 l0 30 100 0 100 0 0 -30z
m166 7 c1 -12 1 -13 -3 -2 -6 21 -50 19 -56 -2 -3 -13 -5 -12 -6 5 -1 20 3 23
31 20 23 -2 33 -8 34 -21z m130 0 c2 -14 1 -14 -3 -1 -4 12 -14 15 -39 12 -19
-2 -34 0 -34 5 0 4 17 7 37 5 28 -2 38 -8 39 -21z m113 -4 c-2 -25 -2 -25 -6
-5 -6 32 -45 26 -54 -8 -4 -14 -7 -18 -8 -8 -2 32 11 48 40 48 25 0 29 -4 28
-27z m141 6 c7 -11 9 -23 7 -26 -3 -2 -8 5 -12 16 -4 15 -15 21 -36 21 -16 0
-29 -5 -29 -12 0 -6 -3 -9 -6 -5 -12 12 8 27 36 27 19 0 33 -7 40 -21z m129 4
c0 -11 -3 -13 -6 -5 -2 6 -15 12 -29 12 -21 0 -23 -4 -19 -32 4 -29 4 -30 -4
-8 -16 44 -13 50 24 50 27 0 35 -4 34 -17z m130 0 c0 -11 -3 -13 -6 -5 -2 6
-17 12 -33 12 -24 0 -30 -5 -36 -32 -4 -18 -9 -28 -11 -22 -2 6 1 23 6 37 9
22 17 27 46 27 27 0 35 -4 34 -17z m121 10 c-1 -18 -38 -147 -39 -133 0 8 6
40 14 70 8 30 15 56 15 58 0 9 -49 -1 -53 -10 -3 -8 -6 -6 -6 5 -1 13 7 17 34
17 19 0 35 -3 35 -7z m143 -35 c9 -23 15 -43 13 -45 -2 -2 -11 14 -20 37 -13
32 -21 40 -41 40 -21 0 -30 -9 -45 -42 -23 -53 -26 -44 -4 12 14 35 20 40 49
40 28 0 34 -5 48 -42z m124 12 c15 -25 15 -25 -2 -2 -18 23 -83 34 -69 10 4
-7 3 -8 -5 -4 -20 13 -1 27 31 24 20 -2 36 -12 45 -28z m143 18 c0 -7 -18 -40
-40 -73 -33 -49 -40 -69 -40 -107 0 -48 0 -48 -32 -47 -31 2 -31 2 -5 6 24 4
27 8 27 46 0 32 9 56 40 102 22 33 40 63 40 68 0 4 -11 7 -25 7 -18 0 -30 -10
-47 -40 -25 -43 -33 -48 -41 -26 -4 9 -1 13 6 11 7 -3 22 11 35 30 17 27 29
35 52 35 17 0 30 -5 30 -12z m178 -80 l3 -87 52 -3 c48 -3 52 -5 55 -30 l3
-28 -90 0 -91 0 2 118 2 117 3 -112 4 -113 79 0 c73 0 80 2 80 20 0 18 -7 20
-55 20 l-55 0 0 89 c0 85 -1 90 -22 94 -20 5 -20 5 2 4 24 -2 25 -4 28 -89z
m272 88 c0 -2 3 -13 6 -23 6 -17 6 -17 -8 0 -26 34 -59 18 -81 -41 -11 -29
-22 -51 -24 -49 -2 2 6 29 18 61 21 53 24 56 55 56 19 0 34 -2 34 -4z m196
-19 c2 -14 1 -14 -3 -1 -4 12 -14 15 -44 12 -21 -2 -39 0 -39 5 0 4 19 7 42 5
32 -2 43 -7 44 -21z m107 16 c-31 -3 -43 -9 -43 -20 0 -9 -3 -14 -6 -10 -4 3
-4 13 -1 22 5 11 19 14 49 13 l43 -1 -42 -4z m241 -14 c14 -11 26 -24 26 -29
0 -5 -11 2 -25 15 -21 22 -33 25 -90 25 l-65 0 0 -110 0 -110 25 0 c23 0 25 4
25 40 l0 40 40 0 c30 0 47 7 65 25 14 13 25 20 25 15 0 -18 -54 -50 -86 -50
-33 0 -34 -1 -34 -40 0 -39 -1 -40 -35 -40 l-35 0 0 120 0 120 69 0 c54 0 74
-4 95 -21z m124 -66 l-2 -88 -3 83 c-4 80 -5 82 -28 82 -24 0 -25 -2 -27 -82
l-2 -83 -3 74 c-5 92 -1 101 37 101 l30 0 -2 -87z m132 -10 c0 -86 -3 -99 -22
-120 -12 -13 -26 -23 -31 -23 -5 0 2 9 17 21 25 19 26 25 26 114 l0 94 -27 4
c-26 4 -26 4 5 6 l32 1 0 -97z m118 70 c26 -39 34 -53 28 -53 -2 0 -14 16 -26
35 -15 24 -29 35 -46 35 -24 0 -24 0 -24 -110 l0 -110 25 0 c23 0 25 3 26 53
1 28 1 55 0 60 -2 14 8 7 20 -14 8 -15 8 -19 0 -15 -7 5 -11 -9 -11 -43 l0
-51 -35 0 -35 0 0 113 c0 63 3 117 7 120 16 16 53 5 71 -20z m122 -93 l0 -120
-29 0 c-28 0 -45 15 -75 68 -17 29 4 9 24 -23 15 -24 29 -35 46 -35 24 0 24 0
24 110 0 103 -1 110 -20 110 -18 0 -20 -7 -20 -66 0 -66 -9 -75 -30 -31 -11
21 -11 21 4 3 15 -18 16 -16 16 42 l0 62 30 0 30 0 0 -120z m153 111 c-35 -4
-60 -14 -78 -31 -14 -13 -24 -18 -20 -9 10 27 58 49 105 47 l45 -1 -52 -6z
m337 -3 c0 -7 -5 -20 -11 -28 -8 -12 -9 -10 -4 8 10 35 -22 28 -45 -10 -11
-18 -20 -29 -20 -25 0 5 8 22 17 38 18 30 63 42 63 17z m145 6 c-48 -8 -115
-9 -115 -2 0 5 30 7 68 7 37 -1 58 -3 47 -5z m1313 -117 l3 -118 -38 1 c-21 1
-49 -1 -63 -4 l-25 -7 25 12 c14 6 40 11 58 10 l32 -2 0 111 c0 110 0 110 -24
110 -21 0 -25 -5 -29 -37 l-4 -38 -1 43 c-2 43 -2 43 31 40 l32 -3 3 -118z
m272 91 c11 -18 20 -37 20 -43 -1 -5 -10 7 -21 28 -19 37 -43 48 -52 25 -3 -8
-6 -6 -6 5 -2 30 37 20 59 -15z m-10400 -198 c17 0 20 7 20 40 0 39 1 40 33
39 30 -2 30 -2 5 -6 -25 -4 -28 -8 -28 -44 0 -37 -2 -39 -30 -39 l-30 0 2 118
2 117 3 -112 c3 -105 5 -113 23 -113z m142 203 c37 -33 20 -102 -32 -127 -8
-4 -3 2 13 14 36 29 39 91 5 114 -12 9 -18 16 -14 16 5 0 18 -7 28 -17z m548
-44 c0 -15 -5 -31 -10 -34 -6 -4 -4 -12 5 -21 8 -9 15 -20 15 -26 0 -6 -9 0
-19 13 -12 15 -16 28 -10 34 15 15 10 57 -8 79 -18 21 -18 21 5 2 13 -11 22
-30 22 -47z m1049 25 c16 -37 14 -50 -15 -81 l-26 -28 21 29 c26 36 26 56 0
90 -13 17 -15 24 -6 20 8 -3 19 -16 26 -30z m291 -184 c17 0 20 7 20 45 0 37
3 45 18 45 11 0 27 -10 38 -22 19 -23 19 -23 -2 -5 -33 28 -44 21 -44 -28 0
-43 -1 -45 -30 -45 l-30 0 2 118 2 117 3 -112 c3 -105 5 -113 23 -113z m154
201 c11 -12 16 -30 13 -48 -4 -28 -4 -28 -6 4 0 20 -9 37 -23 47 -12 9 -18 16
-12 16 6 0 19 -9 28 -19z m477 2 c13 -17 13 -17 -6 -3 -11 8 -22 16 -24 17 -2
2 0 3 6 3 6 0 17 -8 24 -17z m1563 -2 c11 -12 16 -30 13 -48 -4 -28 -4 -28 -6
4 0 20 -9 37 -23 47 -12 9 -18 16 -12 16 6 0 19 -9 28 -19z m4211 -21 c3 -11
3 -24 0 -30 -9 -15 -51 -12 -65 4 -6 8 -24 17 -38 19 l-27 4 26 2 c15 0 32 -6
39 -14 16 -19 60 -20 60 0 0 8 -10 24 -22 36 -23 21 -23 21 -1 10 12 -6 24
-20 28 -31z m439 18 c40 -57 -1 -128 -73 -128 -37 0 -40 -2 -44 -32 l-5 -33 2
35 c1 34 2 35 50 41 54 6 76 26 76 71 0 15 -9 37 -20 48 -11 11 -16 20 -11 20
6 0 17 -10 25 -22z m-8083 -15 c-12 -20 -14 -14 -5 12 4 9 9 14 11 11 3 -2 0
-13 -6 -23z m2348 -32 c0 -10 -4 -7 -10 8 -5 14 -13 30 -17 36 -4 6 1 2 11 -8
9 -11 17 -27 16 -36z m471 24 c0 -5 -5 -3 -10 5 -5 8 -10 20 -10 25 0 6 5 3
10 -5 5 -8 10 -19 10 -25z m1517 -72 c-3 -2 -12 15 -22 39 -28 69 -27 78 0 19
14 -29 24 -55 22 -58z m-4237 62 c0 -5 -5 -3 -10 5 -5 8 -10 20 -10 25 0 6 5
3 10 -5 5 -8 10 -19 10 -25z m277 -107 c-2 -29 -3 -8 -3 47 0 55 1 79 3 53 2
-26 2 -71 0 -100z m2344 115 c-12 -20 -14 -14 -5 12 4 9 9 14 11 11 3 -2 0
-13 -6 -23z m1016 -115 c-2 -29 -3 -8 -3 47 0 55 1 79 3 53 2 -26 2 -71 0
-100z m1040 120 c-3 -8 -6 -5 -6 6 -1 11 2 17 5 13 3 -3 4 -12 1 -19z m1690
-120 c-2 -29 -3 -8 -3 47 0 55 1 79 3 53 2 -26 2 -71 0 -100z m1450 0 c-2 -29
-3 -8 -3 47 0 55 1 79 3 53 2 -26 2 -71 0 -100z m-7616 77 l10 -20 -16 20 c-9
11 -21 29 -26 40 l-10 20 16 -20 c9 -11 21 -29 26 -40z m4720 28 c-12 -20 -14
-14 -5 12 4 9 9 14 11 11 3 -2 0 -13 -6 -23z m226 5 c-3 -8 -6 -5 -6 6 -1 11
2 17 5 13 3 -3 4 -12 1 -19z m141 -33 c0 -16 -2 -15 -8 5 -11 34 -11 60 0 35
5 -11 8 -29 8 -40z m22 -5 c-15 -57 -21 -46 -7 14 6 27 13 44 15 38 2 -6 -2
-29 -8 -52z m4169 20 c0 -10 -3 -8 -9 5 -12 27 -12 43 0 25 5 -8 9 -22 9 -30z
m-10274 0 c0 -22 -5 -25 -37 -28 -36 -3 -38 -2 -38 28 0 30 2 31 38 28 32 -3
37 -6 37 -28z m155 -60 c0 -89 0 -90 25 -90 25 0 25 1 25 90 l0 90 38 -2 c36
-1 36 -1 5 -5 l-33 -4 0 -90 0 -89 -35 0 -35 0 0 89 0 90 -32 4 c-32 4 -32 4
5 5 l37 2 0 -90z m378 78 c17 -17 -4 -38 -39 -38 -31 0 -44 13 -35 35 6 18 57
20 74 3z m1052 -3 c18 -21 -4 -45 -41 -45 -26 0 -29 4 -29 30 0 26 3 30 29 30
16 0 34 -7 41 -15z m456 -8 c1 -12 1 -13 -3 -2 -3 10 -17 15 -39 15 -27 0 -34
-4 -34 -19 0 -14 8 -21 28 -24 25 -4 25 -4 -3 -3 -25 1 -31 6 -33 29 -3 27 -2
28 40 25 32 -2 43 -7 44 -21z m479 -2 c0 -12 -7 -20 -20 -22 -16 -1 -16 -1 -2
3 9 3 17 12 17 21 0 12 -9 14 -39 11 -22 -2 -37 0 -34 5 3 4 21 7 41 5 29 -2
37 -7 37 -23z m65 2 c0 -13 -7 -32 -16 -43 -15 -18 -15 -18 -5 3 6 12 11 31
11 42 0 12 2 21 5 21 3 0 5 -10 5 -23z m163 16 c-47 -3 -63 -8 -63 -18 0 -11
15 -15 58 -17 l57 -2 -54 -3 c-57 -4 -78 5 -68 31 5 13 20 16 69 14 l63 -2
-62 -3z m200 0 c-7 -2 -21 -2 -30 0 -10 3 -4 5 12 5 17 0 24 -2 18 -5z m1132
-18 c0 -12 -7 -20 -20 -22 -16 -1 -16 -1 -2 3 31 10 19 33 -20 37 l-38 4 40
-1 c33 -1 40 -5 40 -21z m134 -39 c-12 -31 -24 -55 -26 -53 -2 2 6 30 18 61
12 31 24 55 26 53 2 -2 -6 -30 -18 -61z m158 -43 c-3 -2 -12 15 -22 39 -28 69
-27 78 0 19 14 -29 24 -55 22 -58z m458 80 c-10 -16 -24 -37 -32 -48 -7 -11
-13 -41 -13 -67 0 -48 0 -48 -32 -47 -31 2 -31 2 -5 6 24 4 27 8 27 45 0 29 9
56 31 90 17 26 33 48 36 48 3 0 -3 -12 -12 -27z m564 -83 c0 -8 -7 8 -15 35
-7 28 -13 57 -13 65 0 8 7 -7 15 -35 7 -27 13 -57 13 -65z m38 78 c-3 -7 -5
-2 -5 12 0 14 2 19 5 13 2 -7 2 -19 0 -25z m130 10 c-3 -8 -6 -5 -6 6 -1 11 2
17 5 13 3 -3 4 -12 1 -19z m1522 -33 c0 -5 -6 1 -14 15 -8 14 -14 30 -14 35 0
6 6 -1 14 -15 8 -14 14 -29 14 -35z m180 5 c0 -9 -4 -8 -9 5 -5 11 -9 27 -9
35 0 9 4 8 9 -5 5 -11 9 -27 9 -35z m28 28 c-3 -8 -6 -5 -6 6 -1 11 2 17 5 13
3 -3 4 -12 1 -19z m257 14 c3 -5 -8 -6 -25 -4 -25 4 -29 1 -29 -18 0 -19 4
-22 29 -18 17 2 28 1 25 -4 -3 -4 -18 -8 -35 -8 -26 0 -29 3 -29 30 0 27 3 30
29 30 17 0 32 -4 35 -8z m1166 4 c0 -2 -13 -6 -29 -8 -17 -2 -28 -1 -25 4 5 8
54 12 54 4z m-5732 -31 c-3 -3 -9 2 -12 12 -6 14 -5 15 5 6 7 -7 10 -15 7 -18z
m1913 -2 c-12 -20 -14 -14 -5 12 4 9 9 14 11 11 3 -2 0 -13 -6 -23z m756 5
c-3 -8 -6 -5 -6 6 -1 11 2 17 5 13 3 -3 4 -12 1 -19z m183 -13 c0 -5 -5 -3
-10 5 -5 8 -10 20 -10 25 0 6 5 3 10 -5 5 -8 10 -19 10 -25z m2363 20 c-3 -9
-8 -14 -10 -11 -3 3 -2 9 2 15 9 16 15 13 8 -4z m534 -17 c-3 -7 -5 -2 -5 12
0 14 2 19 5 13 2 -7 2 -19 0 -25z m221 12 c23 -22 37 -61 29 -82 -3 -7 -6 -1
-6 13 -1 41 -36 77 -79 82 l-37 4 36 1 c23 1 43 -5 57 -18z m179 0 c3 -10 2
-11 -4 -3 -4 6 -32 11 -60 11 l-53 1 0 -80 c0 -77 1 -79 24 -79 23 0 25 4 29
53 l3 52 2 -57 2 -58 -35 0 -35 0 0 83 c0 46 3 87 6 90 4 4 32 5 62 4 39 -1
57 -6 59 -17z m83 11 c-25 -4 -52 -10 -60 -15 -8 -4 -6 0 4 8 12 10 37 15 60
15 l41 -2 -45 -6z m248 -11 c23 -22 37 -61 29 -82 -3 -7 -6 -1 -6 13 -1 41
-36 77 -79 82 l-37 4 36 1 c23 1 43 -5 57 -18z m179 0 c3 -10 2 -11 -4 -3 -4
6 -32 11 -60 11 l-53 1 0 -80 c0 -77 1 -79 24 -79 23 0 25 4 29 53 l3 52 2
-57 2 -58 -35 0 -35 0 0 83 c0 46 3 87 6 90 4 4 32 5 62 4 39 -1 57 -6 59 -17z
m121 13 c-10 -2 -28 -2 -40 0 -13 2 -5 4 17 4 22 1 32 -1 23 -4z m167 0 c-35
-5 -65 -29 -66 -52 0 -11 -2 -12 -6 -3 -9 23 37 62 71 61 l31 -2 -30 -4z m266
-3 c16 -9 19 -21 17 -73 l-2 -62 -3 55 c-3 30 -9 60 -15 67 -24 29 -128 6
-128 -29 0 -12 37 -10 60 4 15 10 22 10 32 0 17 -17 2 -27 -43 -26 -56 2 -69
17 -39 49 25 27 84 34 121 15z m-9522 -39 c-6 -18 -13 -30 -15 -28 -2 2 1 18
7 36 6 18 13 30 15 28 2 -2 -1 -18 -7 -36z m2861 4 c0 -5 -5 -3 -10 5 -5 8
-10 20 -10 25 0 6 5 3 10 -5 5 -8 10 -19 10 -25z m1181 -20 l10 -20 -16 20
c-9 11 -21 29 -26 40 l-10 20 16 -20 c9 -11 21 -29 26 -40z m876 23 c-3 -7 -5
-2 -5 12 0 14 2 19 5 13 2 -7 2 -19 0 -25z m854 -23 l10 -20 -16 20 c-9 11
-21 29 -26 40 l-10 20 16 -20 c9 -11 21 -29 26 -40z m2409 51 c0 -2 -8 -10
-17 -17 -16 -13 -17 -12 -4 4 13 16 21 21 21 13z m439 -35 c-2 -6 -10 2 -17
17 -11 25 -11 25 4 10 9 -9 15 -21 13 -27z m71 35 c0 -2 -8 -10 -17 -17 -16
-13 -17 -12 -4 4 13 16 21 21 21 13z m311 -22 c-36 -46 -25 -106 24 -132 11
-6 14 -12 7 -12 -26 0 -62 48 -62 83 0 30 31 87 46 87 3 0 -4 -12 -15 -26z
m158 -57 c-1 -32 -1 -32 -9 5 -4 21 -13 46 -21 56 -8 10 -4 7 9 -6 14 -15 22
-34 21 -55z m-9099 49 c-8 -21 -6 -25 13 -29 18 -4 17 -5 -5 -6 -16 0 -28 1
-28 3 0 11 20 56 25 56 2 0 0 -11 -5 -24z m107 -83 c-3 -2 -12 15 -22 39 -28
69 -27 78 0 19 14 -29 24 -55 22 -58z m2552 68 c-6 -18 -13 -30 -15 -28 -2 2
1 18 7 36 6 18 13 30 15 28 2 -2 -1 -18 -7 -36z m81 18 c0 -6 -4 -7 -10 -4 -5
3 -10 -1 -10 -10 0 -11 5 -15 15 -11 8 3 15 1 15 -4 0 -6 -11 -10 -24 -10 -23
0 -24 2 -15 30 10 27 29 33 29 9z m1490 0 c0 -6 -4 -7 -10 -4 -5 3 -10 11 -10
16 0 6 5 7 10 4 6 -3 10 -11 10 -16z m810 13 c0 -4 -5 -13 -12 -20 -6 -6 -8
-15 -4 -19 4 -4 11 -1 16 7 7 11 10 11 10 2 0 -13 -27 -28 -36 -19 -8 7 7 57
17 57 5 0 9 -4 9 -8z m117 -14 c-3 -8 -6 -5 -6 6 -1 11 2 17 5 13 3 -3 4 -12
1 -19z m67 -13 c5 -22 4 -26 -4 -15 -5 8 -10 24 -10 34 0 26 6 18 14 -19z m13
13 c-3 -8 -6 -5 -6 6 -1 11 2 17 5 13 3 -3 4 -12 1 -19z m1058 -15 c6 -20 3
-23 -22 -22 -23 1 -24 3 -6 6 19 4 21 7 12 31 -6 16 -6 23 -1 17 5 -5 13 -20
17 -32z m1462 15 c-3 -8 -6 -5 -6 6 -1 11 2 17 5 13 3 -3 4 -12 1 -19z m-2954
-78 c6 -30 4 -29 -8 9 -22 66 -26 90 -11 56 7 -16 16 -46 19 -65z m46 45 c0
-5 -4 -3 -9 5 -5 8 -9 22 -9 30 0 16 17 -16 18 -35z m112 18 c-12 -20 -14 -14
-5 12 4 9 9 14 11 11 3 -2 0 -13 -6 -23z m343 -5 c3 -17 4 -33 1 -36 -3 -3 -5
2 -5 11 0 10 -4 17 -10 17 -5 0 -10 -7 -10 -17 0 -9 -2 -14 -5 -11 -7 7 6 68
15 68 4 0 10 -14 14 -32z m1236 -5 c-11 -17 -11 -17 -6 0 3 10 6 24 7 30 0 9
2 9 5 0 3 -7 0 -20 -6 -30z m1267 -60 c-2 -21 -4 -6 -4 32 0 39 2 55 4 38 2
-18 2 -50 0 -70z m154 79 c-13 -2 -27 0 -32 5 -6 6 3 7 23 4 28 -4 29 -6 9 -9z
m1636 -14 c-3 -7 -5 -2 -5 12 0 14 2 19 5 13 2 -7 2 -19 0 -25z m-7340 -15
c-3 -10 -5 -4 -5 12 0 17 2 24 5 18 2 -7 2 -21 0 -30z m60 0 c-3 -10 -5 -4 -5
12 0 17 2 24 5 18 2 -7 2 -21 0 -30z m1253 5 c0 -5 -12 -7 -27 -7 -23 1 -24 2
-6 6 15 3 20 9 17 21 -5 15 -4 15 5 2 6 -8 11 -18 11 -22z m1150 18 c0 -8 -4
-18 -10 -21 -5 -3 -10 3 -10 14 0 12 5 21 10 21 6 0 10 -6 10 -14z m187 -8
c-3 -8 -6 -5 -6 6 -1 11 2 17 5 13 3 -3 4 -12 1 -19z m564 -5 c-12 -20 -14
-14 -5 12 4 9 9 14 11 11 3 -2 0 -13 -6 -23z m66 13 c-4 -10 2 -16 16 -19 18
-4 17 -5 -5 -6 -16 0 -28 1 -28 3 0 10 13 36 17 36 3 0 3 -6 0 -14z m93 -21
c0 -5 -5 -3 -10 5 -5 8 -10 20 -10 25 0 6 5 3 10 -5 5 -8 10 -19 10 -25z m852
-53 c-4 -51 -5 -52 -36 -51 -30 2 -30 2 -3 6 26 4 27 6 28 71 0 45 3 60 8 47
5 -11 6 -44 3 -73z m905 56 c-3 -7 -5 -2 -5 12 0 14 2 19 5 13 2 -7 2 -19 0
-25z m60 0 c-3 -7 -5 -2 -5 12 0 14 2 19 5 13 2 -7 2 -19 0 -25z m171 -25 c3
-49 1 -53 -27 -67 -17 -9 -36 -16 -43 -16 -7 0 3 8 22 18 32 15 35 21 38 65
l3 49 -55 -4 c-31 -1 -56 1 -56 5 0 4 26 7 58 5 l57 -3 3 -52z m772 47 c0 -5
-12 -10 -27 -9 l-28 1 25 8 c14 4 26 8 28 9 1 1 2 -3 2 -9z m43 -45 c12 -8 31
-15 42 -16 20 0 20 0 0 -9 -12 -5 -14 -9 -6 -9 8 -1 12 -3 9 -6 -3 -3 -17 1
-31 8 -15 8 -24 16 -22 19 3 3 -1 11 -10 18 -8 7 -14 22 -14 34 2 20 2 20 6
-1 2 -13 14 -30 26 -38z m79 43 c30 -17 57 -50 58 -68 0 -24 -29 -60 -48 -59
-13 0 -11 3 5 9 34 14 41 59 13 82 -12 10 -32 18 -44 18 -17 0 -19 2 -6 11 12
9 11 10 -7 6 -13 -3 -23 -1 -23 4 0 13 27 11 52 -3z m168 8 c0 -2 -7 -7 -16
-10 -8 -3 -12 -2 -9 4 6 10 25 14 25 6z m220 -6 c0 -5 -12 -10 -27 -9 l-28 1
25 8 c14 4 26 8 28 9 1 1 2 -3 2 -9z m328 -2 c17 -17 15 -63 -4 -79 -22 -18
-49 1 -51 37 l-2 29 7 -30 c5 -21 13 -30 27 -30 27 0 34 54 9 72 -10 7 -13 13
-8 13 6 0 15 -5 22 -12z m319 -66 c-2 -15 -4 -2 -4 28 0 30 2 43 4 28 2 -16 2
-40 0 -56z m-8200 50 c-13 -15 -14 -21 -4 -33 6 -8 3 -6 -8 3 -19 18 -19 18 0
33 27 20 31 19 12 -3z m2040 0 c-13 -15 -14 -21 -4 -33 6 -8 3 -6 -8 3 -19 18
-19 18 0 33 27 20 31 19 12 -3z m754 -9 c-12 -20 -14 -14 -5 12 4 9 9 14 11
11 3 -2 0 -13 -6 -23z m88 11 c6 4 11 2 11 -3 0 -6 -11 -10 -24 -9 -16 2 -22
7 -18 16 4 10 7 11 12 2 4 -7 13 -9 19 -6z m891 -19 c0 -5 -5 -3 -10 5 -5 8
-10 20 -10 25 0 6 5 3 10 -5 5 -8 10 -19 10 -25z m1508 -88 c26 -4 25 -4 -4
-6 -31 -1 -32 0 -36 51 -3 29 -3 60 1 68 3 8 7 -13 9 -47 3 -59 4 -62 30 -66z
m1459 101 c-3 -8 -6 -5 -6 6 -1 11 2 17 5 13 3 -3 4 -12 1 -19z m510 0 c-3 -8
-6 -5 -6 6 -1 11 2 17 5 13 3 -3 4 -12 1 -19z m103 7 c0 -10 -9 -15 -27 -14
-24 2 -25 2 -5 6 12 2 22 9 22 14 0 5 2 9 5 9 3 0 5 -7 5 -15z m285 -22 c0
-31 4 -38 20 -38 24 0 34 52 13 67 -10 8 -10 9 2 5 21 -5 20 -67 -2 -80 -23
-15 -48 8 -48 43 0 21 7 40 14 40 1 0 1 -17 1 -37z m-6156 -28 c0 -5 -6 1 -14
15 -8 14 -14 30 -14 35 0 6 6 -1 14 -15 8 -14 14 -29 14 -35z m1045 0 c20 -30
36 -57 36 -60 0 -3 -18 -5 -40 -5 -31 0 -42 5 -50 23 -10 20 -10 20 3 4 8 -10
28 -17 46 -17 l32 0 -29 43 c-36 53 -44 67 -39 67 2 0 21 -25 41 -55z m885 1
c-6 -26 -13 -45 -16 -43 -2 3 1 26 8 51 6 26 13 45 16 43 2 -3 -1 -26 -8 -51z
m408 32 c-3 -8 -6 -5 -6 6 -1 11 2 17 5 13 3 -3 4 -12 1 -19z m1203 -13 c0 -5
-5 -3 -10 5 -5 8 -10 20 -10 25 0 6 5 3 10 -5 5 -8 10 -19 10 -25z m1395 -77
c5 -19 4 -20 -5 -6 -6 10 -13 42 -15 70 l-4 53 8 -47 c5 -25 12 -57 16 -70z
m-6645 92 c0 -5 -25 -10 -55 -10 -41 0 -55 -4 -55 -15 0 -10 16 -15 63 -17 59
-3 62 -4 65 -30 l3 -28 -98 2 -98 2 93 3 c84 3 92 6 92 23 0 18 -7 20 -65 20
-62 0 -65 1 -65 25 0 22 4 24 58 28 31 2 58 4 60 5 1 1 2 -2 2 -8z m750 -95
c0 -3 -17 -5 -37 -5 -33 0 -41 5 -61 38 l-23 37 28 -33 c19 -22 37 -32 56 -32
l28 0 -31 44 c-16 25 -30 48 -30 53 0 4 16 -16 35 -44 19 -29 35 -55 35 -58z
m190 95 c0 -5 -25 -10 -55 -10 -41 0 -55 -4 -55 -15 0 -10 16 -15 63 -17 59
-3 62 -4 65 -30 l3 -28 -98 2 -98 2 93 3 c84 3 92 6 92 23 0 18 -7 20 -65 20
-62 0 -65 1 -65 25 0 22 4 24 58 28 31 2 58 4 60 5 1 1 2 -2 2 -8z m4131 -17
c-12 -20 -14 -14 -5 12 4 9 9 14 11 11 3 -2 0 -13 -6 -23z m1992 20 c-7 -2
-21 -2 -30 0 -10 3 -4 5 12 5 17 0 24 -2 18 -5z m-8379 -11 c2 -4 -13 -6 -35
-4 -30 3 -39 1 -39 -11 0 -11 12 -17 43 -20 l42 -4 -47 -1 c-45 -2 -48 0 -48
23 0 22 4 25 39 25 22 0 42 -3 45 -8z m1726 -37 c22 -39 29 -45 58 -45 l33 0
-19 28 c-26 37 -34 52 -29 52 5 0 57 -77 57 -85 0 -3 -18 -5 -39 -5 -36 0 -41
4 -66 46 -23 40 -29 44 -43 32 -15 -12 -16 -11 -3 5 19 24 24 22 51 -28z m193
38 c-7 -2 -14 -21 -14 -41 -2 -32 -3 -33 -6 -9 -5 35 2 57 19 56 10 0 10 -2 1
-6z m2076 -20 l12 -28 -18 23 c-15 18 -21 20 -31 10 -6 -6 -13 -23 -13 -37 -2
-25 -2 -25 -6 -3 -4 22 20 62 37 62 4 0 12 -12 19 -27z m521 -8 c0 -5 -5 -3
-10 5 -5 8 -10 20 -10 25 0 6 5 3 10 -5 5 -8 10 -19 10 -25z m577 13 c-3 -8
-6 -5 -6 6 -1 11 2 17 5 13 3 -3 4 -12 1 -19z m42 -17 c-6 -18 -13 -30 -15
-28 -2 2 1 18 7 36 6 18 13 30 15 28 2 -2 -1 -18 -7 -36z m4409 28 c-11 -6
-18 -22 -18 -39 0 -17 7 -33 18 -39 9 -6 12 -11 7 -11 -19 0 -35 23 -35 50 0
27 16 50 35 50 5 0 2 -5 -7 -11z m-9437 -26 c-12 -20 -14 -14 -5 12 4 9 9 14
11 11 3 -2 0 -13 -6 -23z m3423 -13 c21 -32 32 -40 57 -40 20 0 28 4 23 12 -4
6 -3 8 4 4 6 -3 14 3 17 15 4 11 9 18 12 16 2 -3 0 -15 -7 -26 -10 -19 -8 -21
19 -21 16 0 32 5 34 10 3 6 4 5 3 -2 -2 -9 -25 -14 -68 -16 -65 -3 -67 -2 -91
30 -29 39 -40 58 -34 58 2 0 16 -18 31 -40z m2117 13 c-12 -20 -14 -14 -5 12
4 9 9 14 11 11 3 -2 0 -13 -6 -23z m199 -8 c0 -5 -5 -3 -10 5 -5 8 -10 20 -10
25 0 6 5 3 10 -5 5 -8 10 -19 10 -25z m1802 -40 c21 -9 26 -14 15 -15 -24 0
-77 53 -77 77 1 11 6 6 15 -15 9 -20 27 -38 47 -47z m32 36 c-5 -6 -34 20 -34
30 0 5 8 1 18 -8 10 -10 17 -20 16 -22z m72 28 c8 -14 -4 -25 -36 -32 -23 -6
-23 -5 3 5 15 7 27 15 27 19 0 4 -12 10 -27 12 l-28 4 27 2 c15 0 30 -4 34
-10z m-5313 -20 c-6 -6 -26 -9 -44 -6 l-34 4 38 1 c20 1 37 7 37 14 0 6 3 8 7
5 4 -4 2 -12 -4 -18z m388 -6 c-12 -20 -14 -14 -5 12 4 9 9 14 11 11 3 -2 0
-13 -6 -23z m1490 0 c-12 -20 -14 -14 -5 12 4 9 9 14 11 11 3 -2 0 -13 -6 -23z
m1019 -8 c0 -5 -5 -3 -10 5 -5 8 -10 20 -10 25 0 6 5 3 10 -5 5 -8 10 -19 10
-25z m37 13 c-3 -8 -6 -5 -6 6 -1 11 2 17 5 13 3 -3 4 -12 1 -19z m230 0 c-3
-8 -6 -5 -6 6 -1 11 2 17 5 13 3 -3 4 -12 1 -19z m1630 -5 c-13 -13 -20 -14
-39 -5 -22 11 -22 11 4 6 20 -5 30 -2 34 10 4 9 9 14 12 11 3 -3 -2 -13 -11
-22z m1595 -41 c13 -6 17 -11 11 -11 -21 -1 -53 37 -52 62 1 18 3 16 10 -9 5
-17 19 -36 31 -42z m796 51 c-2 -11 -12 -18 -26 -18 -24 0 -32 17 -10 23 9 2
8 0 -2 -7 -12 -9 -11 -11 9 -11 16 0 22 4 17 15 -3 8 -1 15 5 15 6 0 9 -8 7
-17z m-5768 -28 c0 -5 -5 -3 -10 5 -5 8 -10 20 -10 25 0 6 5 3 10 -5 5 -8 10
-19 10 -25z m1601 -8 c-9 -22 -17 -27 -46 -27 -30 0 -35 3 -34 23 1 16 2 18 6
5 3 -12 14 -18 33 -18 24 0 30 5 36 33 4 17 9 27 11 21 2 -6 -1 -23 -6 -37z
m100 -17 c15 0 29 6 32 13 2 7 3 6 3 -3 -1 -20 -76 -28 -76 -8 0 7 -2 24 -5
38 -3 15 0 12 7 -7 9 -27 16 -33 39 -33z m1039 3 c0 -8 -13 -13 -35 -13 -19 0
-35 2 -35 4 0 2 -3 13 -6 23 -5 17 -5 17 6 1 14 -23 65 -25 56 -3 -15 38 -16
48 -2 25 8 -14 15 -31 16 -37z m97 35 c-3 -8 -6 -5 -6 6 -1 11 2 17 5 13 3 -3
4 -12 1 -19z m80 0 c-3 -8 -6 -5 -6 6 -1 11 2 17 5 13 3 -3 4 -12 1 -19z
m1546 -36 c12 -6 16 -11 10 -11 -19 -1 -53 36 -52 57 0 11 4 8 10 -9 5 -15 20
-31 32 -37z m61 48 c9 7 19 11 21 8 3 -3 -6 -11 -20 -18 -23 -12 -28 -12 -43
4 -16 17 -16 18 5 5 18 -11 24 -10 37 1z m505 -1 c5 7 14 12 21 9 6 -2 0 -10
-14 -18 -24 -12 -28 -12 -44 4 -16 17 -16 18 6 5 19 -12 24 -12 31 0z m-8819
-9 c0 -5 -9 -19 -20 -30 -17 -17 -32 -20 -102 -18 l-83 2 70 3 c93 4 113 9
120 33 7 21 15 27 15 10z m174 2 c2 -4 -12 -6 -32 -4 -56 5 -62 10 -15 11 23
1 44 -3 47 -7z m1346 -44 c0 -5 -18 -8 -39 -8 -28 0 -41 5 -46 18 -5 14 -4 15
6 5 7 -7 26 -13 41 -13 28 0 28 0 12 28 l-16 27 21 -25 c11 -14 21 -28 21 -32z
m1390 27 c7 -18 17 -25 35 -25 23 0 25 3 20 23 -5 17 -4 19 4 7 20 -28 12 -40
-24 -40 -29 0 -36 4 -41 25 -5 21 -12 25 -45 25 -33 0 -40 -4 -45 -25 -5 -21
-12 -25 -40 -25 -26 0 -34 4 -33 18 0 10 3 12 6 5 9 -23 49 -15 61 12 10 21
19 25 52 25 34 0 42 -4 50 -25z m805 20 c-23 -8 -83 -10 -79 -3 3 4 24 8 47 7
23 0 38 -2 32 -4z m681 -13 c1 -7 0 -8 -3 -2 -2 5 -22 10 -44 10 -33 0 -40 -4
-45 -25 -5 -21 -12 -25 -40 -25 -26 0 -34 4 -33 18 0 10 3 12 6 5 9 -23 49
-15 61 13 11 22 17 25 54 22 23 -2 43 -8 44 -16z m401 -4 c-3 -8 -6 -5 -6 6
-1 11 2 17 5 13 3 -3 4 -12 1 -19z m219 -13 c-5 -21 -12 -25 -41 -25 -19 0
-35 3 -35 8 0 4 15 7 33 7 26 0 33 4 35 23 2 13 6 21 9 18 3 -3 3 -17 -1 -31z
m196 11 c7 -17 21 -26 42 -29 l31 -4 -33 -1 c-26 -2 -35 3 -44 23 -9 20 -18
25 -49 25 -31 0 -38 -4 -43 -25 -5 -21 -12 -25 -41 -25 -19 0 -35 4 -35 8 0 5
13 7 30 4 25 -3 31 0 40 22 8 22 16 26 50 26 33 0 42 -4 52 -24z m506 12 c7
-7 12 -17 12 -22 0 -6 -5 -3 -11 7 -6 11 -22 17 -45 17 -28 0 -36 -5 -44 -25
-8 -20 -16 -25 -45 -25 -37 0 -41 6 -24 30 9 13 10 12 5 -2 -4 -15 1 -18 24
-18 18 0 30 5 30 13 0 22 22 37 55 37 17 0 36 -5 43 -12z m583 -15 c-12 -20
-14 -14 -5 12 4 9 9 14 11 11 3 -2 0 -13 -6 -23z m113 20 c-32 -3 -44 -9 -52
-29 -9 -19 -18 -24 -44 -22 l-33 1 31 4 c21 3 35 12 42 29 10 20 18 24 54 22
l43 -1 -41 -4z m660 -33 c10 -13 9 -13 -6 -1 -10 7 -18 21 -17 30 0 13 1 14 6
1 3 -8 11 -22 17 -30z m1493 -9 c10 -6 14 -11 9 -11 -16 0 -46 32 -45 49 0 11
3 9 9 -6 5 -12 17 -26 27 -32z m73 39 c0 -5 -5 -10 -11 -10 -5 0 -7 5 -4 10 3
6 8 10 11 10 2 0 4 -4 4 -10z m629 -20 c11 -24 11 -24 -3 -6 -9 11 -16 24 -16
30 0 12 5 7 19 -24z m-8824 -23 c28 -4 27 -5 -4 -3 -24 1 -38 8 -49 26 l-14
25 18 -22 c11 -12 33 -24 49 -26z m1985 40 c0 -2 -10 -12 -22 -23 l-23 -19 19
23 c18 21 26 27 26 19z m2040 -34 c0 -8 -14 -13 -35 -13 -19 0 -35 4 -35 8 0
5 14 6 31 4 29 -4 31 -3 24 19 -5 19 -4 21 4 9 6 -8 11 -21 11 -27z m4750 32
c0 -8 -43 -45 -52 -45 -5 0 4 11 19 25 29 26 33 28 33 20z m-9193 -19 c-4 -11
3 -16 26 -19 31 -4 31 -4 -5 -5 -21 -1 -38 0 -38 2 0 10 13 36 17 36 3 0 3 -6
0 -14z m233 -19 c0 -14 -73 -3 -76 11 -1 7 0 8 3 2 2 -5 18 -10 34 -10 22 0
27 4 23 18 -5 14 -4 15 5 2 6 -8 11 -19 11 -23z m3513 5 c15 3 27 1 27 -3 0
-5 -16 -9 -35 -9 -19 0 -35 2 -35 4 0 2 -3 13 -6 23 -6 17 -6 17 8 -1 10 -13
23 -17 41 -14z m2027 -4 c0 -5 -17 -7 -37 -6 -37 1 -37 1 -6 5 25 3 31 8 27
21 -5 15 -4 15 5 2 6 -8 11 -18 11 -22z m2555 12 c-10 -11 -22 -20 -28 -20 -5
0 1 9 14 20 31 25 37 25 14 0z m510 0 c-10 -11 -22 -20 -28 -20 -5 0 1 9 14
20 31 25 37 25 14 0z m-2200 -10 c13 0 26 6 28 13 3 7 6 5 6 -5 1 -14 -7 -18
-34 -18 -27 0 -35 4 -34 18 0 10 3 12 6 5 2 -7 15 -13 28 -13z m2955 5 c0 -12
-10 -15 -37 -15 -21 1 -49 -1 -63 -4 l-25 -7 25 12 c14 6 40 11 58 10 17 -1
32 3 32 9 0 5 2 10 5 10 3 0 5 -7 5 -15z m47 -7 c-3 -8 -6 -5 -6 6 -1 11 2 17
5 13 3 -3 4 -12 1 -19z m-4797 -4 c0 -2 -16 -4 -35 -4 -19 0 -35 4 -35 8 0 4
16 6 35 4 19 -2 35 -6 35 -8z m-3282 -1 c-10 -2 -26 -2 -35 0 -10 3 -2 5 17 5
19 0 27 -2 18 -5z m240 0 c-10 -2 -26 -2 -35 0 -10 3 -2 5 17 5 19 0 27 -2 18
-5z m2040 0 c-10 -2 -26 -2 -35 0 -10 3 -2 5 17 5 19 0 27 -2 18 -5z m700 0
c-10 -2 -26 -2 -35 0 -10 3 -2 5 17 5 19 0 27 -2 18 -5z m3480 0 c-10 -2 -26
-2 -35 0 -10 3 -2 5 17 5 19 0 27 -2 18 -5z m-885 -10 c-7 -2 -21 -2 -30 0
-10 3 -4 5 12 5 17 0 24 -2 18 -5z m490 0 c-7 -2 -19 -2 -25 0 -7 3 -2 5 12 5
14 0 19 -2 13 -5z m654 1 c-3 -3 -12 -4 -19 -1 -8 3 -5 6 6 6 11 1 17 -2 13
-5z m316 -1 c-7 -2 -19 -2 -25 0 -7 3 -2 5 12 5 14 0 19 -2 13 -5z m194 1 c-3
-3 -12 -4 -19 -1 -8 3 -5 6 6 6 11 1 17 -2 13 -5z m330 0 c-3 -3 -12 -4 -19
-1 -8 3 -5 6 6 6 11 1 17 -2 13 -5z"/>
<path d="M635 1429 c-82 -50 -156 -93 -163 -98 -9 -5 3 -45 49 -158 l62 -151
86 51 c47 27 87 51 89 52 2 1 -36 102 -43 113 -1 1 -20 -8 -43 -20 -45 -25
-48 -24 -57 12 -5 22 1 29 64 67 39 23 73 38 76 33 17 -27 93 -225 90 -231 -6
-9 -262 -159 -272 -159 -4 0 -39 78 -77 173 -38 94 -72 175 -75 179 -3 4 -82
-38 -175 -92 -93 -55 -174 -101 -179 -103 -6 -2 19 -74 54 -160 l65 -156 69
41 c39 22 80 47 92 54 l23 14 -26 57 c-13 31 -27 59 -29 61 -2 2 -17 -5 -33
-17 -17 -12 -35 -21 -40 -21 -9 0 -27 49 -20 55 33 25 144 83 149 77 4 -4 53
-119 109 -257 56 -137 104 -252 106 -255 5 -4 93 40 99 50 2 3 -12 41 -31 85
-18 44 -33 85 -34 90 0 6 84 60 186 119 145 85 184 112 179 125 -38 100 -190
461 -194 460 -3 0 -73 -41 -156 -90z"/>
<path d="M110 220 c0 -16 7 -20 30 -20 23 0 30 4 30 20 0 16 -7 20 -30 20 -23
0 -30 -4 -30 -20z"/>
<path d="M640 225 c0 -12 8 -16 33 -13 17 2 32 8 32 13 0 6 -15 11 -32 13 -25
3 -33 -1 -33 -13z"/>
<path d="M1700 220 c0 -17 5 -21 28 -18 16 2 27 9 27 18 0 9 -11 16 -27 18
-23 3 -28 -1 -28 -18z"/>
<path d="M10295 180 c-8 -13 5 -13 25 0 13 8 13 10 -2 10 -9 0 -20 -4 -23 -10z"/>
</g>
</svg>
